<svg width="50" height="50" viewBox="0 0 50 50" fill="none" xmlns="http://www.w3.org/2000/svg">
<g clip-path="url(#clip0_89:1804)">
<path d="M11.3154 3.57361C13.1102 2.19421 15.2591 1.46484 17.5292 1.46484H32.4706C38.0976 1.46484 42.6757 6.04286 42.6757 11.6699V17.1711C42.6757 17.5758 43.0037 17.9035 43.4081 17.9035C43.8124 17.9035 44.1405 17.5758 44.1405 17.1711V11.6699C44.1405 5.23491 38.9056 0 32.4706 0H17.5292C14.9333 0 12.4758 0.834274 10.4228 2.41241C10.102 2.65884 10.0421 3.11852 10.2885 3.43933C10.5349 3.76015 10.995 3.82004 11.3154 3.57361Z" fill="#0BCF6B"/>
<path d="M50 25.9771C50 23.1501 47.7001 20.8502 44.873 20.8502C44.6243 20.8502 44.3798 20.8681 44.1406 20.9024V20.2967C44.1406 19.8923 43.8126 19.5642 43.4082 19.5642C43.0038 19.5642 42.6758 19.8923 42.6758 20.2967V21.3453C40.9451 22.1697 39.7461 23.9359 39.7461 25.9771C39.7461 26.7057 39.8991 27.3996 40.1741 28.0279H9.8259C10.1009 27.3996 10.2539 26.7057 10.2539 25.9771C10.2539 23.9359 9.05495 22.1697 7.32422 21.3453V11.6705C7.32422 9.49036 8.00171 7.41097 9.28307 5.65659C9.52187 5.33005 9.45053 4.8719 9.12399 4.6331C8.79707 4.39468 8.33893 4.46602 8.10051 4.79256C6.63414 6.79947 5.85938 9.17756 5.85938 11.6705V20.9024C5.62019 20.8681 5.37567 20.8502 5.12695 20.8502C2.29988 20.8502 0 23.1501 0 25.9771C0 28.5341 1.88141 30.6597 4.33273 31.0427C4.21219 31.4394 4.15039 31.8544 4.15039 32.276V39.6704C4.15039 41.3279 5.49889 42.6764 7.15637 42.6764H9.375V46.3385C9.375 48.358 11.0176 50.0006 13.0371 50.0006C15.0566 50.0006 16.6992 48.358 16.6992 46.3385V42.6764H33.3008V46.3385C33.3008 48.358 34.9434 50.0006 36.9629 50.0006C38.9824 50.0006 40.625 48.358 40.625 46.3385V42.6764H42.8436C44.5011 42.6764 45.8496 41.3279 45.8496 39.6704V32.2866C45.8496 31.8613 45.787 31.4428 45.665 31.0431C48.1174 30.6612 50 28.5349 50 25.9771ZM1.46484 25.9771C1.46484 23.9576 3.10745 22.315 5.12695 22.315C5.55153 22.315 5.95932 22.3875 6.3385 22.521C6.3427 22.5225 6.34689 22.5241 6.35109 22.5256C7.77016 23.0303 8.78906 24.3868 8.78906 25.9771C8.78906 27.9966 7.14645 29.6392 5.12695 29.6392C3.10745 29.6392 1.46484 27.9966 1.46484 25.9771ZM15.2344 46.3385C15.2344 47.55 14.2487 48.5358 13.0371 48.5358C11.8256 48.5358 10.8398 47.55 10.8398 46.3385V42.6764H15.2344V46.3385ZM39.1602 46.3385C39.1602 47.55 38.1744 48.5358 36.9629 48.5358C35.7513 48.5358 34.7656 47.55 34.7656 46.3385V42.6764H39.1602V46.3385ZM42.8436 41.2115H7.15637C6.30646 41.2115 5.61523 40.5203 5.61523 39.6704V34.8639H9.375C9.77936 34.8639 10.1074 34.5358 10.1074 34.1314C10.1074 33.7271 9.77936 33.399 9.375 33.399H5.61523V32.276C5.61523 31.8457 5.71365 31.4261 5.90172 31.0457C7.05757 30.8699 8.08792 30.3064 8.85544 29.4928H41.1446C41.9113 30.3053 42.9401 30.8683 44.0945 31.045C44.2852 31.428 44.3848 31.8514 44.3848 32.2866V33.399H12.508C12.1037 33.399 11.7756 33.7271 11.7756 34.1314C11.7756 34.5358 12.1037 34.8639 12.508 34.8639H44.3848V39.6704C44.3848 40.5203 43.6935 41.2115 42.8436 41.2115ZM44.873 29.6392C42.8535 29.6392 41.2109 27.9966 41.2109 25.9771C41.2109 24.3868 42.2298 23.0303 43.6489 22.5256C43.6531 22.5241 43.6573 22.5225 43.6615 22.521C44.0407 22.3875 44.4485 22.315 44.873 22.315C46.8925 22.315 48.5352 23.9576 48.5352 25.9771C48.5352 27.9966 46.8925 29.6392 44.873 29.6392Z" fill="#0BCF6B"/>
<path d="M16.6504 7.86133H16.1915C15.9592 7.15714 15.4015 6.59943 14.6973 6.36711V5.9082C14.6973 5.50385 14.3692 5.17578 13.9648 5.17578C13.5605 5.17578 13.2324 5.50385 13.2324 5.9082V6.36711C12.5282 6.59943 11.9705 7.15714 11.7382 7.86133H11.2793C10.8749 7.86133 10.5469 8.18939 10.5469 8.59375C10.5469 8.99811 10.8749 9.32617 11.2793 9.32617H11.7382C11.9705 10.0304 12.5282 10.5881 13.2324 10.8204V11.2793C13.2324 11.6837 13.5605 12.0117 13.9648 12.0117C14.3692 12.0117 14.6973 11.6837 14.6973 11.2793V10.8204C15.4015 10.5881 15.9592 10.0304 16.1915 9.32617H16.6504C17.0547 9.32617 17.3828 8.99811 17.3828 8.59375C17.3828 8.18939 17.0547 7.86133 16.6504 7.86133ZM13.9648 9.47266C13.4804 9.47266 13.0859 9.07822 13.0859 8.59375C13.0859 8.10928 13.4804 7.71484 13.9648 7.71484C14.4493 7.71484 14.8438 8.10928 14.8438 8.59375C14.8438 9.07822 14.4493 9.47266 13.9648 9.47266Z" fill="#0BCF6B"/>
<path d="M38.7207 7.86133H38.2618C38.0295 7.15714 37.4718 6.59943 36.7676 6.36711V5.9082C36.7676 5.50385 36.4395 5.17578 36.0352 5.17578C35.6308 5.17578 35.3027 5.50385 35.3027 5.9082V6.36711C34.5985 6.59943 34.0408 7.15714 33.8085 7.86133H33.3496C32.9453 7.86133 32.6172 8.18939 32.6172 8.59375C32.6172 8.99811 32.9453 9.32617 33.3496 9.32617H33.8085C34.0408 10.0304 34.5985 10.5881 35.3027 10.8204V11.2793C35.3027 11.6837 35.6308 12.0117 36.0352 12.0117C36.4395 12.0117 36.7676 11.6837 36.7676 11.2793V10.8204C37.4718 10.5881 38.0295 10.0304 38.2618 9.32617H38.7207C39.1251 9.32617 39.4531 8.99811 39.4531 8.59375C39.4531 8.18939 39.1251 7.86133 38.7207 7.86133ZM36.0352 9.47266C35.5507 9.47266 35.1562 9.07822 35.1562 8.59375C35.1562 8.10928 35.5507 7.71484 36.0352 7.71484C36.5196 7.71484 36.9141 8.10928 36.9141 8.59375C36.9141 9.07822 36.5196 9.47266 36.0352 9.47266Z" fill="#0BCF6B"/>
<path d="M27.6855 7.86133H27.2266C26.9943 7.15714 26.4366 6.59943 25.7324 6.36711V5.9082C25.7324 5.50385 25.4044 5.17578 25 5.17578C24.5956 5.17578 24.2676 5.50385 24.2676 5.9082V6.36711C23.5634 6.59943 23.0057 7.15714 22.7734 7.86133H22.3145C21.9101 7.86133 21.582 8.18939 21.582 8.59375C21.582 8.99811 21.9101 9.32617 22.3145 9.32617H22.7734C23.0057 10.0304 23.5634 10.5881 24.2676 10.8204V11.2793C24.2676 11.6837 24.5956 12.0117 25 12.0117C25.4044 12.0117 25.7324 11.6837 25.7324 11.2793V10.8204C26.4366 10.5881 26.9943 10.0304 27.2266 9.32617H27.6855C28.0899 9.32617 28.418 8.99811 28.418 8.59375C28.418 8.18939 28.0899 7.86133 27.6855 7.86133ZM25 9.47266C24.5155 9.47266 24.1211 9.07822 24.1211 8.59375C24.1211 8.10928 24.5155 7.71484 25 7.71484C25.4845 7.71484 25.8789 8.10928 25.8789 8.59375C25.8789 9.07822 25.4845 9.47266 25 9.47266Z" fill="#0BCF6B"/>
<path d="M13.9648 23.584C14.3692 23.584 14.6973 23.2559 14.6973 22.8516V22.3927C15.4015 22.1603 15.9592 21.6026 16.1915 20.8984H16.6504C17.0547 20.8984 17.3828 20.5704 17.3828 20.166C17.3828 19.7617 17.0547 19.4336 16.6504 19.4336H16.1915C15.9592 18.7294 15.4015 18.1717 14.6973 17.9394V17.4805C14.6973 17.0761 14.3692 16.748 13.9648 16.748C13.5605 16.748 13.2324 17.0761 13.2324 17.4805V17.9394C12.5282 18.1717 11.9705 18.7294 11.7382 19.4336H11.2793C10.8749 19.4336 10.5469 19.7617 10.5469 20.166C10.5469 20.5704 10.8749 20.8984 11.2793 20.8984H11.7382C11.9705 21.6026 12.5282 22.1603 13.2324 22.3927V22.8516C13.2324 23.2559 13.5605 23.584 13.9648 23.584ZM13.9648 19.2871C14.4493 19.2871 14.8438 19.6815 14.8438 20.166C14.8438 20.6505 14.4493 21.0449 13.9648 21.0449C13.4804 21.0449 13.0859 20.6505 13.0859 20.166C13.0859 19.6815 13.4804 19.2871 13.9648 19.2871Z" fill="#0BCF6B"/>
<path d="M36.0352 23.584C36.4395 23.584 36.7676 23.2559 36.7676 22.8516V22.3927C37.4718 22.1603 38.0295 21.6026 38.2618 20.8984H38.7207C39.1251 20.8984 39.4531 20.5704 39.4531 20.166C39.4531 19.7617 39.1251 19.4336 38.7207 19.4336H38.2618C38.0295 18.7294 37.4718 18.1717 36.7676 17.9394V17.4805C36.7676 17.0761 36.4395 16.748 36.0352 16.748C35.6308 16.748 35.3027 17.0761 35.3027 17.4805V17.9394C34.5985 18.1717 34.0408 18.7294 33.8085 19.4336H33.3496C32.9453 19.4336 32.6172 19.7617 32.6172 20.166C32.6172 20.5704 32.9453 20.8984 33.3496 20.8984H33.8085C34.0408 21.6026 34.5985 22.1603 35.3027 22.3927V22.8516C35.3027 23.2559 35.6308 23.584 36.0352 23.584ZM36.0352 19.2871C36.5196 19.2871 36.9141 19.6815 36.9141 20.166C36.9141 20.6505 36.5196 21.0449 36.0352 21.0449C35.5507 21.0449 35.1562 20.6505 35.1562 20.166C35.1562 19.6815 35.5507 19.2871 36.0352 19.2871Z" fill="#0BCF6B"/>
<path d="M25 23.584C25.4044 23.584 25.7324 23.2559 25.7324 22.8516V22.3927C26.4366 22.1603 26.9943 21.6026 27.2266 20.8984H27.6855C28.0899 20.8984 28.418 20.5704 28.418 20.166C28.418 19.7617 28.0899 19.4336 27.6855 19.4336H27.2266C26.9943 18.7294 26.4366 18.1717 25.7324 17.9394V17.4805C25.7324 17.0761 25.4044 16.748 25 16.748C24.5956 16.748 24.2676 17.0761 24.2676 17.4805V17.9394C23.5634 18.1717 23.0057 18.7294 22.7734 19.4336H22.3145C21.9101 19.4336 21.582 19.7617 21.582 20.166C21.582 20.5704 21.9101 20.8984 22.3145 20.8984H22.7734C23.0057 21.6026 23.5634 22.1603 24.2676 22.3927V22.8516C24.2676 23.2559 24.5956 23.584 25 23.584ZM25 19.2871C25.4845 19.2871 25.8789 19.6815 25.8789 20.166C25.8789 20.6505 25.4845 21.0449 25 21.0449C24.5155 21.0449 24.1211 20.6505 24.1211 20.166C24.1211 19.6815 24.5155 19.2871 25 19.2871Z" fill="#0BCF6B"/>
</g>
<defs>
<clipPath id="clip0_89:1804">
<rect width="50" height="50" fill="white"/>
</clipPath>
</defs>
</svg>
