<?xml version="1.0" encoding="UTF-8"?>
<!DOCTYPE svg PUBLIC "-//W3C//DTD SVG 1.1//EN" "http://www.w3.org/Graphics/SVG/1.1/DTD/svg11.dtd">
<!-- Creator: CorelDRAW 2020 (64-Bit) -->
<svg xmlns="http://www.w3.org/2000/svg" xml:space="preserve" width="801px" height="223px" version="1.1" style="shape-rendering:geometricPrecision; text-rendering:geometricPrecision; image-rendering:optimizeQuality; fill-rule:evenodd; clip-rule:evenodd"
viewBox="0 0 498.45 138.83"
 xmlns:xlink="http://www.w3.org/1999/xlink"
 xmlns:xodm="http://www.corel.com/coreldraw/odm/2003">
 <defs>
  <style type="text/css">
   <![CDATA[
    .fil0 {fill:#01AA54}
    .fil1 {fill:#01AA54;fill-rule:nonzero}
   ]]>
  </style>
 </defs>
 <g id="Слой_x0020_1">
  <metadata id="CorelCorpID_0Corel-Layer"/>
  <path class="fil0" d="M242.49 0c21.91,0 39.68,17.77 39.68,39.68 0,21.9 -17.77,39.67 -39.68,39.67 -21.9,0 -39.67,-17.77 -39.67,-39.67 0,-21.91 17.77,-39.68 39.67,-39.68zm38.1 39.68c0,-21.06 -17.06,-38.14 -38.1,-38.14 -21.03,0 -38.09,17.08 -38.09,38.14 0,21.05 17.06,38.13 38.09,38.13 21.04,0 38.1,-17.08 38.1,-38.13zm-34.99 -18.51c2.55,1.07 3.72,2.31 5.57,3.47l12.1 -14.55c2.36,1.68 4.51,3.63 6.41,5.81l-15.97 18.25 -8.1 -3.32 0 -4.53 -5.82 0 -0.09 1.46 -2.49 -1.46 -5.03 0c0.17,1.39 -0.04,2.48 2.19,4.19 2.24,1.71 7.26,3.42 10.84,5.32 4.35,2.33 8.76,4.39 12.94,7.37 3.91,2.83 3.51,6.02 0,8.98l-5.22 3.27c-2.13,-1.48 -4.64,-2.41 -7.42,-2.98l0 -5.56 1.51 -2.05c3.94,1.85 5.12,3.43 5.47,7.32 1.65,-0.38 3.26,-1.16 4.79,-2.83 1.25,-1.86 0.68,-3.43 -0.93,-4.83 -3.66,-2.44 -6.94,-4.12 -10.99,-5.86l0 -1.32 -5.67 -2.53 0 1.58c-1.63,-0.88 -2.99,-1.78 -4.88,-2.63 -1.9,-0.84 -4.4,-2.58 -4.89,-4.38 -0.48,-1.79 -0.48,-2.17 -0.52,-3.06 -4.14,0.63 -6.67,5.22 -3.27,8.34 5.02,4.61 13.31,7.06 19.62,9.71l-0.34 0.54 -5.63 -2.29 0 8.85c-7.79,0.45 -15.68,0.88 -20.69,7.68 -1.88,2.55 -1.2,6.22 2.1,7.33 1.53,0.51 3.98,0.36 5.61,0 4.48,-0.99 9.59,-6.74 11.77,-10.35l9.51 3.61 13.18 -7.98c8.16,-4.07 7.76,-9.69 -0.03,-14.32l-6.23 -2.85c4.24,-4.73 8.1,-9.83 12.72,-14.18 1.47,-1.38 3.82,-1.56 5.34,0.09 3.48,5.57 5.49,12.15 5.49,19.2 0,19.98 -16.15,36.19 -36.06,36.19 -19.9,0 -36.05,-16.21 -36.05,-36.19 0,-19.99 16.15,-36.2 36.05,-36.2 7.31,0 14.11,2.18 19.79,5.94l-7.94 9.7c-3.26,-0.91 -6.56,-1.45 -9.96,-1.32 -3.79,0.21 -7.29,1.55 -10.3,4.49l-7.62 0c-0.98,0.14 -1.5,0.74 -1.71,1.66l0 1.52 25.49 0c-1.33,-1.32 -2.66,-2.65 -4.78,-3.18l-8.65 0c2.54,-2.16 6.25,-2.19 8.79,-1.12zm-0.13 38.31l-5.69 -2 0 9.22 -0.57 0.34 0 0.78 6.83 0 0 -0.73 -0.57 -0.33 0 -7.28zm9.8 -37.2c-1.4,0.29 -3.06,1.77 -3.64,3.19l7.5 0.02c0.07,-3.04 -2.25,-3.52 -3.86,-3.21zm-28.03 41.96c4.49,-1.68 10.89,-9.17 8.81,-9.77 -4.85,-1.39 -16.96,3.18 -16.18,8.28 0.3,1.94 2.88,3.17 7.37,1.49z"/>
  <path class="fil1" d="M21.85 101.88l0 36.14 -11.74 0 0 -36.14 -10.11 0 0 -10.99 31.96 0 0 10.99 -10.11 0zm43.36 36.14l-1.22 0c-4.1,0 -7.7,-0.33 -10.76,-0.99 -3.07,-0.65 -5.67,-1.65 -7.77,-2.99 -3.45,-2.22 -6.11,-5.02 -7.99,-8.43 -1.88,-3.4 -2.81,-7.13 -2.81,-11.19 0,-4.06 0.93,-7.78 2.8,-11.16 1.86,-3.38 4.53,-6.17 8,-8.4 2.1,-1.33 4.7,-2.33 7.77,-2.99 3.06,-0.66 6.66,-0.98 10.76,-0.98l1.22 0 0 10.72c-0.31,-0.03 -0.63,-0.05 -0.97,-0.06 -0.35,-0.01 -0.83,-0.01 -1.47,-0.01 -4.13,0 -7.4,0.61 -9.84,1.81 -2.44,1.21 -4.18,3.08 -5.22,5.61l17.5 0 0 10.52 -17.74 0c0.79,2.59 2.49,4.55 5.07,5.85 2.58,1.32 6.08,1.97 10.46,1.97 0.6,0 1.05,0 1.36,-0.01 0.33,-0.01 0.61,-0.03 0.85,-0.03l0 10.76zm44.16 0c-4.54,-0.27 -8.46,-1.16 -11.74,-2.68 -3.28,-1.51 -6.03,-3.69 -8.22,-6.52 -2.19,2.83 -4.93,5.01 -8.21,6.52 -3.28,1.52 -7.21,2.41 -11.75,2.68l0 -11.06c4.4,-0.2 7.81,-1.39 10.28,-3.6 2.46,-2.2 3.68,-5.19 3.68,-8.95 0,-3.76 -1.22,-6.72 -3.68,-8.91 -2.47,-2.2 -5.88,-3.38 -10.28,-3.56l0 -11.05c4.49,0.2 8.35,1.05 11.64,2.57 3.27,1.52 6.04,3.74 8.32,6.66 2.28,-2.92 5.06,-5.14 8.33,-6.66 3.28,-1.52 7.15,-2.37 11.63,-2.57l0 11.05c-4.39,0.18 -7.81,1.36 -10.27,3.56 -2.46,2.19 -3.69,5.15 -3.69,8.91 0,3.76 1.23,6.75 3.69,8.95 2.46,2.21 5.88,3.39 10.27,3.57l0 11.09zm4.85 0l0 -39.9c0,-2.53 0.65,-4.54 1.95,-6.02 1.31,-1.48 3.05,-2.23 5.22,-2.23 1.79,0 3.33,0.52 4.63,1.54 1.29,1.03 2.73,2.99 4.3,5.89l6.21 11.2c1.29,2.34 2.31,4.32 3.04,5.92 0.74,1.61 1.33,3.08 1.77,4.44 -0.26,-2.89 -0.47,-5.52 -0.61,-7.87 -0.15,-2.34 -0.22,-4.15 -0.22,-5.39l0 -14.71 11.33 0 0 41.47c0,1.91 -0.54,3.45 -1.63,4.63 -1.09,1.18 -2.51,1.77 -4.3,1.77 -1.51,0 -2.8,-0.39 -3.87,-1.18 -1.06,-0.79 -2.22,-2.31 -3.47,-4.56l-9.2 -16.56c-0.19,-0.38 -0.5,-0.92 -0.89,-1.65 -2.04,-3.66 -3.45,-6.62 -4.22,-8.89 0.44,3.15 0.77,6 0.97,8.58 0.21,2.58 0.32,5 0.32,7.26l0 16.26 -11.33 0zm54.96 -23.67c0,3.54 1.21,6.54 3.6,9.03 2.39,2.48 5.26,3.72 8.62,3.72 3.36,0 6.23,-1.24 8.59,-3.71 2.36,-2.46 3.54,-5.48 3.54,-9.04 0,-3.55 -1.18,-6.55 -3.53,-9 -2.35,-2.45 -5.22,-3.68 -8.6,-3.68 -3.39,0 -6.28,1.23 -8.65,3.69 -2.37,2.46 -3.57,5.46 -3.57,8.99zm-12 0.06c0,-3.27 0.61,-6.37 1.83,-9.31 1.22,-2.93 2.99,-5.57 5.32,-7.94 2.3,-2.31 4.91,-4.06 7.83,-5.27 2.91,-1.21 5.99,-1.81 9.24,-1.81 3.25,0 6.35,0.61 9.28,1.84 2.95,1.22 5.56,3 7.84,5.3 2.26,2.29 4,4.89 5.2,7.84 1.2,2.93 1.81,6.05 1.81,9.35 0,3.3 -0.61,6.45 -1.81,9.4 -1.2,2.97 -2.94,5.58 -5.2,7.84 -2.28,2.32 -4.89,4.11 -7.84,5.34 -2.93,1.22 -6.03,1.84 -9.28,1.84 -3.23,0 -6.29,-0.62 -9.22,-1.84 -2.91,-1.23 -5.54,-3.02 -7.85,-5.34 -2.33,-2.36 -4.1,-5.02 -5.32,-7.93 -1.22,-2.92 -1.83,-6.02 -1.83,-9.31zm53.88 23.61l0 -47.13 11.73 0 0 47.13 -11.73 0zm18.82 0l0 -39.9c0,-2.53 0.65,-4.54 1.96,-6.02 1.3,-1.48 3.04,-2.23 5.21,-2.23 1.8,0 3.34,0.52 4.63,1.54 1.3,1.03 2.73,2.99 4.31,5.89l6.2 11.2c1.29,2.34 2.32,4.32 3.05,5.92 0.74,1.61 1.32,3.08 1.76,4.44 -0.26,-2.89 -0.46,-5.52 -0.61,-7.87 -0.14,-2.34 -0.21,-4.15 -0.21,-5.39l0 -14.71 11.33 0 0 41.47c0,1.91 -0.54,3.45 -1.63,4.63 -1.09,1.18 -2.52,1.77 -4.3,1.77 -1.51,0 -2.8,-0.39 -3.87,-1.18 -1.07,-0.79 -2.23,-2.31 -3.47,-4.56l-9.21 -16.56c-0.19,-0.38 -0.49,-0.92 -0.89,-1.65 -2.03,-3.66 -3.45,-6.62 -4.21,-8.89 0.44,3.15 0.76,6 0.97,8.58 0.21,2.58 0.31,5 0.31,7.26l0 16.26 -11.33 0zm79.45 -47.13l-9.59 37.15c-0.99,3.85 -2.26,6.62 -3.83,8.28 -1.57,1.68 -3.66,2.51 -6.27,2.51 -2.62,0 -4.72,-0.84 -6.32,-2.52 -1.58,-1.67 -2.87,-4.44 -3.86,-8.27l-9.58 -37.15 11.76 0 6.24 25.01c0.25,0.92 0.52,2.1 0.81,3.54 0.3,1.44 0.61,3.05 0.95,4.82 0.44,-2.3 0.77,-4.1 1.03,-5.38 0.25,-1.28 0.46,-2.28 0.64,-2.98l6.3 -25.01 11.72 0zm31.36 47.13l-1.21 0c-4.1,0 -7.7,-0.33 -10.77,-0.99 -3.06,-0.65 -5.66,-1.65 -7.76,-2.99 -3.45,-2.22 -6.12,-5.02 -7.99,-8.43 -1.88,-3.4 -2.81,-7.13 -2.81,-11.19 0,-4.06 0.93,-7.78 2.8,-11.16 1.86,-3.38 4.53,-6.17 8,-8.4 2.1,-1.33 4.7,-2.33 7.76,-2.99 3.07,-0.66 6.67,-0.98 10.77,-0.98l1.21 0 0 10.72c-0.3,-0.03 -0.62,-0.05 -0.96,-0.06 -0.35,-0.01 -0.83,-0.01 -1.47,-0.01 -4.13,0 -7.4,0.61 -9.84,1.81 -2.44,1.21 -4.18,3.08 -5.22,5.61l17.49 0 0 10.52 -17.73 0c0.79,2.59 2.48,4.55 5.07,5.85 2.58,1.32 6.08,1.97 10.46,1.97 0.6,0 1.05,0 1.36,-0.01 0.33,-0.01 0.61,-0.03 0.84,-0.03l0 10.76zm4.99 0l0 -11.26 16.26 0c0.94,0 1.67,-0.2 2.19,-0.6 0.51,-0.39 0.77,-0.96 0.77,-1.71 0,-0.66 -0.26,-1.31 -0.78,-1.95 -0.53,-0.65 -1.34,-1.32 -2.44,-2l-9.06 -5.46c-2.07,-1.27 -3.72,-2.91 -4.96,-4.93 -1.22,-2 -1.84,-4.06 -1.84,-6.2 0,-2.06 0.35,-3.92 1.06,-5.61 0.69,-1.67 1.74,-3.1 3.12,-4.29 1.3,-1.14 2.9,-1.94 4.79,-2.42 1.89,-0.47 4.95,-0.7 9.19,-0.7l10.77 0 0 10.78 -12.35 0c-1.71,0 -2.89,0.14 -3.54,0.42 -0.64,0.27 -0.97,0.73 -0.97,1.39 0,0.64 0.25,1.27 0.75,1.89 0.51,0.63 1.29,1.26 2.34,1.9l8.87 5.27c2.51,1.53 4.44,3.35 5.75,5.46 1.32,2.11 1.98,4.41 1.98,6.88 0,2.14 -0.45,4.1 -1.35,5.92 -0.9,1.84 -2.16,3.31 -3.75,4.45 -1.41,0.99 -2.99,1.7 -4.75,2.13 -1.75,0.43 -4.54,0.64 -8.36,0.64l-0.73 0 -12.96 0zm56.73 -36.14l0 36.14 -11.74 0 0 -36.14 -10.11 0 0 -10.99 31.96 0 0 10.99 -10.11 0zm7.02 23.66l0 -8.69 17.73 0 0 8.69 -17.73 0zm22.18 12.48l0 -11.26 16.25 0c0.95,0 1.68,-0.2 2.2,-0.6 0.51,-0.39 0.77,-0.96 0.77,-1.71 0,-0.66 -0.26,-1.31 -0.79,-1.95 -0.52,-0.65 -1.33,-1.32 -2.43,-2l-9.06 -5.46c-2.07,-1.27 -3.72,-2.91 -4.96,-4.93 -1.22,-2 -1.84,-4.06 -1.84,-6.2 0,-2.06 0.35,-3.92 1.06,-5.61 0.69,-1.67 1.74,-3.1 3.12,-4.29 1.3,-1.14 2.9,-1.94 4.79,-2.42 1.89,-0.47 4.95,-0.7 9.19,-0.7l10.77 0 0 10.78 -12.35 0c-1.71,0 -2.89,0.14 -3.54,0.42 -0.65,0.27 -0.97,0.73 -0.97,1.39 0,0.64 0.25,1.27 0.75,1.89 0.51,0.63 1.29,1.26 2.34,1.9l8.87 5.27c2.51,1.53 4.44,3.35 5.75,5.46 1.32,2.11 1.98,4.41 1.98,6.88 0,2.14 -0.45,4.1 -1.35,5.92 -0.9,1.84 -2.16,3.31 -3.75,4.45 -1.41,0.99 -2.99,1.7 -4.75,2.13 -1.75,0.43 -4.54,0.64 -8.36,0.64l-0.73 0 -12.96 0zm56.72 -36.14l0 36.14 -11.73 0 0 -36.14 -10.11 0 0 -10.99 31.96 0 0 10.99 -10.12 0z"/>
 </g>
</svg>
