<?xml version="1.0" encoding="UTF-8"?>
<!DOCTYPE svg PUBLIC "-//W3C//DTD SVG 1.1//EN" "http://www.w3.org/Graphics/SVG/1.1/DTD/svg11.dtd">
<!-- Creator: CorelDRAW 2020 (64-Bit) -->
<svg xmlns="http://www.w3.org/2000/svg" xml:space="preserve" width="363px" height="84px" version="1.1" style="shape-rendering:geometricPrecision; text-rendering:geometricPrecision; image-rendering:optimizeQuality; fill-rule:evenodd; clip-rule:evenodd"
viewBox="0 0 314.77 72.86"
 xmlns:xlink="http://www.w3.org/1999/xlink"
 xmlns:xodm="http://www.corel.com/coreldraw/odm/2003">
 <defs>
  <style type="text/css">
   <![CDATA[
    .fil0 {fill:#01AA54}
    .fil1 {fill:#01AA54;fill-rule:nonzero}
   ]]>
  </style>
 </defs>
 <g id="Слой_x0020_1">
  <metadata id="CorelCorpID_0Corel-Layer"/>
  <path class="fil0" d="M36.43 0c20.11,0 36.43,16.31 36.43,36.43 0,20.11 -16.32,36.43 -36.43,36.43 -20.12,0 -36.43,-16.32 -36.43,-36.43 0,-20.12 16.31,-36.43 36.43,-36.43zm34.97 36.43c0,-19.34 -15.66,-35.02 -34.97,-35.02 -19.32,0 -34.98,15.68 -34.98,35.02 0,19.33 15.66,35.01 34.98,35.01 19.31,0 34.97,-15.68 34.97,-35.01zm-32.12 -16.99c2.34,0.98 3.41,2.12 5.11,3.18l11.11 -13.35c2.17,1.53 4.15,3.33 5.89,5.33l-14.66 16.76 -7.45 -3.05 0 -4.17 -5.33 0 -0.09 1.35 -2.29 -1.35 -4.62 0c0.16,1.29 -0.03,2.28 2.02,3.86 2.06,1.57 6.67,3.13 9.96,4.88 3.99,2.14 8.04,4.03 11.88,6.77 3.59,2.59 3.22,5.52 0,8.24l-4.8 3c-1.96,-1.35 -4.26,-2.21 -6.82,-2.73l0 -5.11 1.39 -1.88c3.62,1.7 4.7,3.15 5.03,6.72 1.51,-0.34 2.99,-1.06 4.39,-2.6 1.15,-1.71 0.62,-3.15 -0.85,-4.43 -3.37,-2.25 -6.37,-3.79 -10.09,-5.38l0 -1.21 -5.21 -2.33 0 1.45c-1.49,-0.8 -2.74,-1.63 -4.48,-2.41 -1.74,-0.78 -4.04,-2.37 -4.48,-4.02 -0.45,-1.65 -0.45,-2 -0.49,-2.82 -3.8,0.58 -6.11,4.8 -3,7.66 4.61,4.23 12.22,6.49 18.02,8.92l-0.32 0.49 -5.16 -2.1 0 8.13c-7.15,0.41 -14.4,0.8 -19,7.05 -1.73,2.34 -1.1,5.71 1.92,6.73 1.41,0.47 3.66,0.33 5.16,0 4.11,-0.91 8.81,-6.19 10.81,-9.5l8.73 3.31 12.1 -7.33c7.49,-3.73 7.12,-8.89 -0.03,-13.14l-5.72 -2.62c3.9,-4.34 7.44,-9.02 11.68,-13.02 1.35,-1.26 3.5,-1.43 4.9,0.09 3.19,5.11 5.04,11.15 5.04,17.62 0,18.35 -14.82,33.23 -33.1,33.23 -18.28,0 -33.1,-14.88 -33.1,-33.23 0,-18.35 14.82,-33.23 33.1,-33.23 6.71,0 12.95,2 18.17,5.45l-7.29 8.91c-3,-0.84 -6.03,-1.33 -9.15,-1.21 -3.48,0.19 -6.7,1.42 -9.46,4.12l-6.99 0c-0.91,0.13 -1.39,0.68 -1.57,1.52l0 1.39 23.4 0c-1.22,-1.21 -2.44,-2.43 -4.39,-2.91l-7.94 0c2.33,-1.99 5.74,-2.01 8.07,-1.03zm-0.12 35.17l-5.22 -1.84 0 8.47 -0.53 0.31 0 0.72 6.28 0 0 -0.67 -0.53 -0.3 0 -6.69zm9 -34.16c-1.28,0.27 -2.81,1.64 -3.34,2.93l6.88 0.02c0.07,-2.78 -2.07,-3.23 -3.54,-2.95zm-25.74 38.54c4.12,-1.55 10,-8.43 8.09,-8.98 -4.45,-1.28 -15.57,2.92 -14.85,7.6 0.27,1.79 2.64,2.92 6.76,1.38z"/>
  <path class="fil1" d="M91.87 30.48l0 16.91 -5.49 0 0 -16.91 -4.73 0 0 -5.14 14.95 0 0 5.14 -4.73 0zm20.28 16.91l-0.57 0c-1.92,0 -3.6,-0.16 -5.04,-0.47 -1.43,-0.3 -2.64,-0.77 -3.63,-1.39 -1.61,-1.05 -2.86,-2.35 -3.73,-3.95 -0.88,-1.59 -1.32,-3.33 -1.32,-5.23 0,-1.9 0.44,-3.64 1.31,-5.22 0.87,-1.58 2.12,-2.89 3.74,-3.93 0.99,-0.62 2.2,-1.09 3.63,-1.39 1.44,-0.32 3.12,-0.47 5.04,-0.47l0.57 0 0 5.02c-0.14,-0.01 -0.3,-0.02 -0.46,-0.03 -0.16,0 -0.38,0 -0.68,0 -1.93,0 -3.46,0.28 -4.6,0.84 -1.14,0.57 -1.96,1.44 -2.45,2.62l8.19 0 0 4.92 -8.3 0c0.37,1.22 1.16,2.13 2.37,2.74 1.21,0.62 2.85,0.92 4.9,0.92 0.28,0 0.49,0 0.63,0 0.16,-0.01 0.29,-0.01 0.4,-0.01l0 5.03zm20.65 0c-2.12,-0.13 -3.95,-0.55 -5.49,-1.25 -1.53,-0.71 -2.82,-1.73 -3.84,-3.06 -1.03,1.33 -2.31,2.35 -3.84,3.06 -1.54,0.7 -3.37,1.12 -5.5,1.25l0 -5.18c2.06,-0.09 3.66,-0.65 4.81,-1.68 1.15,-1.03 1.72,-2.43 1.72,-4.19 0,-1.75 -0.57,-3.14 -1.72,-4.16 -1.15,-1.03 -2.75,-1.58 -4.81,-1.67l0 -5.17c2.1,0.1 3.91,0.5 5.44,1.21 1.53,0.71 2.83,1.75 3.9,3.11 1.07,-1.36 2.36,-2.4 3.89,-3.11 1.54,-0.71 3.35,-1.11 5.44,-1.21l0 5.17c-2.05,0.09 -3.65,0.64 -4.8,1.67 -1.15,1.02 -1.72,2.41 -1.72,4.16 0,1.76 0.57,3.16 1.72,4.19 1.15,1.03 2.75,1.58 4.8,1.67l0 5.19zm2.27 0l0 -18.66c0,-1.19 0.3,-2.13 0.91,-2.82 0.61,-0.69 1.43,-1.04 2.44,-1.04 0.84,0 1.56,0.24 2.17,0.72 0.6,0.48 1.27,1.4 2.01,2.75l2.9 5.24c0.61,1.1 1.08,2.02 1.43,2.77 0.34,0.75 0.62,1.44 0.82,2.07 -0.12,-1.35 -0.21,-2.58 -0.28,-3.67 -0.07,-1.1 -0.1,-1.94 -0.1,-2.53l0 -6.88 5.3 0 0 19.4c0,0.89 -0.26,1.61 -0.77,2.16 -0.51,0.55 -1.17,0.83 -2.01,0.83 -0.7,0 -1.31,-0.18 -1.81,-0.55 -0.5,-0.37 -1.04,-1.08 -1.62,-2.13l-4.31 -7.74c-0.09,-0.18 -0.23,-0.44 -0.41,-0.78 -0.95,-1.71 -1.62,-3.09 -1.97,-4.15 0.2,1.47 0.35,2.8 0.45,4.01 0.1,1.2 0.15,2.33 0.15,3.39l0 7.61 -5.3 0zm25.71 -11.07c0,1.65 0.56,3.06 1.68,4.22 1.12,1.16 2.46,1.74 4.03,1.74 1.57,0 2.91,-0.58 4.01,-1.74 1.11,-1.15 1.66,-2.56 1.66,-4.22 0,-1.66 -0.55,-3.07 -1.65,-4.21 -1.1,-1.15 -2.44,-1.72 -4.02,-1.72 -1.59,0 -2.94,0.57 -4.05,1.72 -1.11,1.15 -1.66,2.56 -1.66,4.21zm-5.62 0.02c0,-1.53 0.29,-2.98 0.86,-4.35 0.57,-1.37 1.4,-2.61 2.48,-3.71 1.08,-1.08 2.3,-1.9 3.67,-2.47 1.36,-0.56 2.8,-0.85 4.32,-0.85 1.52,0 2.97,0.29 4.34,0.87 1.38,0.57 2.6,1.4 3.66,2.48 1.06,1.06 1.87,2.28 2.44,3.66 0.56,1.37 0.84,2.83 0.84,4.37 0,1.55 -0.28,3.02 -0.84,4.4 -0.57,1.39 -1.38,2.61 -2.44,3.67 -1.06,1.08 -2.28,1.92 -3.66,2.49 -1.37,0.58 -2.82,0.86 -4.34,0.86 -1.51,0 -2.94,-0.28 -4.31,-0.86 -1.36,-0.57 -2.59,-1.41 -3.68,-2.49 -1.08,-1.11 -1.91,-2.35 -2.48,-3.71 -0.57,-1.37 -0.86,-2.82 -0.86,-4.36zm25.2 11.05l0 -22.05 5.49 0 0 22.05 -5.49 0zm8.8 0l0 -18.66c0,-1.19 0.31,-2.13 0.92,-2.82 0.61,-0.69 1.42,-1.04 2.44,-1.04 0.84,0 1.56,0.24 2.16,0.72 0.61,0.48 1.28,1.4 2.02,2.75l2.9 5.24c0.6,1.1 1.08,2.02 1.42,2.77 0.35,0.75 0.62,1.44 0.83,2.07 -0.12,-1.35 -0.22,-2.58 -0.29,-3.67 -0.07,-1.1 -0.1,-1.94 -0.1,-2.53l0 -6.88 5.3 0 0 19.4c0,0.89 -0.25,1.61 -0.76,2.16 -0.51,0.55 -1.18,0.83 -2.01,0.83 -0.71,0 -1.31,-0.18 -1.81,-0.55 -0.5,-0.37 -1.04,-1.08 -1.63,-2.13l-4.3 -7.74c-0.09,-0.18 -0.23,-0.44 -0.42,-0.78 -0.95,-1.71 -1.61,-3.09 -1.97,-4.15 0.21,1.47 0.36,2.8 0.45,4.01 0.1,1.2 0.15,2.33 0.15,3.39l0 7.61 -5.3 0zm37.16 -22.05l-4.49 17.38c-0.46,1.8 -1.05,3.09 -1.79,3.87 -0.73,0.79 -1.71,1.17 -2.93,1.17 -1.23,0 -2.21,-0.39 -2.95,-1.17 -0.75,-0.79 -1.35,-2.08 -1.81,-3.87l-4.48 -17.38 5.5 0 2.92 11.7c0.12,0.43 0.24,0.99 0.38,1.66 0.13,0.67 0.28,1.42 0.44,2.25 0.2,-1.07 0.36,-1.92 0.48,-2.51 0.12,-0.6 0.22,-1.07 0.3,-1.4l2.95 -11.7 5.48 0zm14.67 22.05l-0.57 0c-1.92,0 -3.6,-0.16 -5.04,-0.47 -1.43,-0.3 -2.64,-0.77 -3.63,-1.39 -1.61,-1.05 -2.86,-2.35 -3.73,-3.95 -0.88,-1.59 -1.32,-3.33 -1.32,-5.23 0,-1.9 0.44,-3.64 1.31,-5.22 0.87,-1.58 2.12,-2.89 3.74,-3.93 0.99,-0.62 2.2,-1.09 3.63,-1.39 1.44,-0.32 3.12,-0.47 5.04,-0.47l0.57 0 0 5.02c-0.14,-0.01 -0.3,-0.02 -0.45,-0.03 -0.17,0 -0.39,0 -0.69,0 -1.93,0 -3.46,0.28 -4.6,0.84 -1.14,0.57 -1.96,1.44 -2.45,2.62l8.19 0 0 4.92 -8.3 0c0.37,1.22 1.16,2.13 2.37,2.74 1.21,0.62 2.85,0.92 4.9,0.92 0.28,0 0.49,0 0.63,0 0.16,-0.01 0.29,-0.01 0.4,-0.01l0 5.03zm2.33 0l0 -5.27 7.6 0c0.44,0 0.78,-0.09 1.03,-0.28 0.24,-0.18 0.36,-0.45 0.36,-0.8 0,-0.31 -0.12,-0.61 -0.37,-0.91 -0.25,-0.31 -0.62,-0.62 -1.14,-0.94l-4.24 -2.55c-0.96,-0.6 -1.74,-1.36 -2.31,-2.3 -0.58,-0.94 -0.87,-1.91 -0.87,-2.91 0,-0.96 0.17,-1.83 0.5,-2.62 0.32,-0.78 0.81,-1.45 1.46,-2.01 0.61,-0.53 1.36,-0.91 2.24,-1.13 0.88,-0.22 2.32,-0.33 4.3,-0.33l5.03 0 0 5.05 -5.77 0c-0.8,0 -1.35,0.06 -1.66,0.19 -0.3,0.13 -0.45,0.34 -0.45,0.65 0,0.3 0.11,0.6 0.35,0.89 0.24,0.29 0.61,0.59 1.09,0.89l4.15 2.46c1.18,0.72 2.08,1.57 2.69,2.56 0.62,0.98 0.93,2.06 0.93,3.21 0,1 -0.21,1.92 -0.63,2.77 -0.42,0.86 -1.01,1.55 -1.76,2.08 -0.66,0.47 -1.4,0.8 -2.22,1 -0.82,0.2 -2.12,0.3 -3.91,0.3l-0.34 0 -6.06 0zm26.53 -16.91l0 16.91 -5.49 0 0 -16.91 -4.73 0 0 -5.14 14.95 0 0 5.14 -4.73 0zm3.28 11.07l0 -4.07 8.3 0 0 4.07 -8.3 0zm10.38 5.84l0 -5.27 7.6 0c0.44,0 0.78,-0.09 1.02,-0.28 0.25,-0.18 0.37,-0.45 0.37,-0.8 0,-0.31 -0.12,-0.61 -0.37,-0.91 -0.25,-0.31 -0.63,-0.62 -1.14,-0.94l-4.24 -2.55c-0.97,-0.6 -1.74,-1.36 -2.32,-2.3 -0.57,-0.94 -0.86,-1.91 -0.86,-2.91 0,-0.96 0.16,-1.83 0.5,-2.62 0.32,-0.78 0.81,-1.45 1.46,-2.01 0.61,-0.53 1.35,-0.91 2.24,-1.13 0.88,-0.22 2.31,-0.33 4.3,-0.33l5.03 0 0 5.05 -5.78 0c-0.79,0 -1.35,0.06 -1.65,0.19 -0.3,0.13 -0.45,0.34 -0.45,0.65 0,0.3 0.11,0.6 0.35,0.89 0.24,0.29 0.6,0.59 1.09,0.89l4.15 2.46c1.18,0.72 2.07,1.57 2.69,2.56 0.61,0.98 0.92,2.06 0.92,3.21 0,1 -0.21,1.92 -0.63,2.77 -0.42,0.86 -1,1.55 -1.75,2.08 -0.66,0.47 -1.4,0.8 -2.22,1 -0.82,0.2 -2.12,0.3 -3.91,0.3l-0.34 0 -6.06 0zm26.53 -16.91l0 16.91 -5.49 0 0 -16.91 -4.73 0 0 -5.14 14.95 0 0 5.14 -4.73 0z"/>
 </g>
</svg>
