<svg width="50" height="50" viewBox="0 0 50 50" fill="none" xmlns="http://www.w3.org/2000/svg">
<path d="M1.03808 17.5813L5.65936 20.8807L1.12311 23.5211C0.803802 23.7069 0.600566 24.0419 0.583559 24.411C0.566127 24.7805 0.737474 25.1329 1.03808 25.3477L5.64703 28.6381L1.12056 31.2887C0.802102 31.4754 0.599716 31.8104 0.583134 32.179C0.566552 32.5477 0.737899 32.8997 1.03808 33.114L24.4051 49.7977C24.7836 50.0676 25.2916 50.0676 25.6701 49.7977L49.0371 33.114C49.336 32.9006 49.5074 32.5506 49.4925 32.1837C49.4776 31.8168 49.2782 31.4817 48.9627 31.2934L44.4686 28.6096L49.0371 25.3477C49.3377 25.1329 49.5091 24.7805 49.4921 24.411C49.4751 24.0419 49.2718 23.7069 48.9525 23.5211L44.4163 20.8807L49.0371 17.5813C49.3284 17.3734 49.4984 17.0358 49.4929 16.6787C49.4874 16.3211 49.3067 15.989 49.0091 15.7905L25.6424 0.183359C25.2763 -0.0611197 24.7993 -0.0611197 24.4332 0.183359L1.06614 15.7905C0.768938 15.989 0.587811 16.3211 0.582283 16.6787C0.576756 17.0358 0.747253 17.3734 1.03808 17.5813ZM46.418 32.3091L25.0378 47.5744L3.67037 32.3185L7.58798 30.0242L24.4047 42.0313C24.7831 42.3013 25.2916 42.3013 25.6701 42.0313L42.5348 29.9902L46.418 32.3091ZM46.401 24.5547L25.0378 39.808L3.6742 24.5547L7.60244 22.2685L24.4051 34.265C24.7836 34.5354 25.2916 34.5354 25.6701 34.265L42.4728 22.2685L46.401 24.5547ZM25.0378 2.39812L46.4899 16.7254L25.0378 32.0417L3.58576 16.7254L25.0378 2.39812Z" fill="#039355"/>
</svg>
