<svg width="50" height="50" viewBox="0 0 50 50" fill="none" xmlns="http://www.w3.org/2000/svg">
<path d="M49.2676 3.90625H9.375C8.97064 3.90625 8.64258 4.23393 8.64258 4.63867C8.64258 5.04341 8.97064 5.37109 9.375 5.37109H48.5352V6.44531H1.46484V5.37109H6.25C6.65436 5.37109 6.98242 5.04341 6.98242 4.63867C6.98242 4.23393 6.65436 3.90625 6.25 3.90625H0.732422C0.328064 3.90625 0 4.23393 0 4.63867V37.4187C0 37.8231 0.328064 38.1512 0.732422 38.1512C1.13678 38.1512 1.46484 37.8231 1.46484 37.4187V7.91016H2.92969V32.373C2.92969 32.7778 3.25775 33.1055 3.66211 33.1055C4.06647 33.1055 4.39453 32.7778 4.39453 32.373V7.91016H6.83594V28.6621C6.83594 29.0668 7.164 29.3945 7.56836 29.3945C7.97272 29.3945 8.30078 29.0668 8.30078 28.6621V7.91016H9.76562V44.5312H1.46484V40.5437C1.46484 40.139 1.13678 39.8113 0.732422 39.8113C0.328064 39.8113 0 40.139 0 40.5437V45.2637C0 45.6684 0.328064 45.9961 0.732422 45.9961H49.2676C49.6719 45.9961 50 45.6684 50 45.2637V12.4187C50 12.014 49.6719 11.6863 49.2676 11.6863C48.8632 11.6863 48.5352 12.014 48.5352 12.4187V44.5312H40.2344V7.91016H41.6992V28.6621C41.6992 29.0668 42.0273 29.3945 42.4316 29.3945C42.836 29.3945 43.1641 29.0668 43.1641 28.6621V7.91016H45.6055V32.373C45.6055 32.7778 45.9335 33.1055 46.3379 33.1055C46.7422 33.1055 47.0703 32.7778 47.0703 32.373V7.91016H48.5352V9.32617C48.5352 9.73091 48.8632 10.0586 49.2676 10.0586C49.6719 10.0586 50 9.73091 50 9.32617V4.63867C50 4.23393 49.6719 3.90625 49.2676 3.90625ZM24.2676 7.91016V9.375H11.2305V7.91016H24.2676ZM11.2305 43.0664H24.2676V44.5312H11.2305V43.0664ZM25.7324 43.0664H38.7695V44.5312H25.7324V43.0664ZM38.7695 41.6016H25.7324V10.8398H38.7695V41.6016ZM24.2676 41.6016H11.2305V10.8398H24.2676V41.6016ZM38.7695 9.375H25.7324V7.91016H38.7695V9.375Z" fill="#039355"/>
</svg>
