<svg width="50" height="50" viewBox="0 0 50 50" fill="none" xmlns="http://www.w3.org/2000/svg">
<path d="M48.913 0H1.08696C0.485628 0 0 0.48722 0 1.08696V48.913C0 49.5144 0.485628 50 1.08696 50H48.913C49.5144 50 50 49.5144 50 48.913V1.08696C50 0.48722 49.5144 0 48.913 0ZM47.8261 47.8261H2.17391V2.17391H47.8261V47.8261Z" fill="#039355"/>
<path d="M7.61039 43.478H42.393C42.9943 43.478 43.48 42.9924 43.48 42.391V7.60844C43.48 7.0087 42.9943 6.52148 42.393 6.52148H7.61039C7.00907 6.52148 6.52344 7.0087 6.52344 7.60844V42.391C6.52344 42.9924 7.00907 43.478 7.61039 43.478ZM8.69735 26.0867H23.9147V41.3041H8.69735V26.0867ZM26.0887 41.3041V26.0867H41.306V41.3041H26.0887ZM41.306 23.9128H26.0887V8.6954H41.306V23.9128ZM23.9147 8.6954V23.9128H8.69735V8.6954H23.9147Z" fill="#039355"/>
</svg>
