<svg width="120" height="120" viewBox="0 0 120 120" fill="none" xmlns="http://www.w3.org/2000/svg">
<path d="M5.44342 52.4391H15.5097C16.1051 54.586 16.9628 56.6514 18.0657 58.5872L10.9408 65.7091C10.6006 66.0494 10.4092 66.5108 10.4092 66.9928C10.4092 67.4748 10.6006 67.9362 10.9408 68.2764L18.6384 75.976C19.3472 76.6834 20.4954 76.6834 21.2042 75.976L28.3297 68.8498C30.2654 69.952 32.3287 70.8103 34.4757 71.405V81.4713C34.4757 82.4736 35.288 83.2859 36.2902 83.2859H47.1773C48.1795 83.2859 48.9918 82.4736 48.9918 81.4713V71.405C51.1388 70.8103 53.2021 69.952 55.1378 68.8498L62.2633 75.976C62.9834 76.6565 64.1097 76.6565 64.8292 75.976L72.5281 68.2764C72.8683 67.9362 73.0597 67.4748 73.0597 66.9928C73.0597 66.5108 72.8683 66.0494 72.5281 65.7091L65.4019 58.5872C66.5047 56.6514 67.3624 54.586 67.9578 52.4391H78.0241C79.0263 52.4391 79.8386 51.6268 79.8386 50.6246V39.7375C79.8386 38.7359 79.0263 37.9229 78.0241 37.9229H67.9578C67.3624 35.7767 66.5047 33.7113 65.4019 31.7756L72.5267 24.6536C72.8669 24.3134 73.0583 23.8519 73.0583 23.37C73.0583 22.888 72.8669 22.4266 72.5267 22.0863L64.8292 14.3867C64.1204 13.6786 62.9721 13.6786 62.2633 14.3867L55.1378 21.5129C53.2021 20.4114 51.1381 19.5531 48.9918 18.9577V8.89069C48.9918 7.88916 48.1795 7.07617 47.1773 7.07617H36.2902C35.288 7.07617 34.4757 7.88916 34.4757 8.89069V18.9577C32.3295 19.5531 30.2654 20.4114 28.3297 21.5129L21.2042 14.3867C20.4841 13.7062 19.3578 13.7062 18.6384 14.3867L10.9394 22.0863C10.5992 22.4266 10.4078 22.888 10.4078 23.37C10.4078 23.8519 10.5992 24.3134 10.9394 24.6536L18.0657 31.7756C16.9628 33.7113 16.1051 35.7767 15.5097 37.9229H5.44342C4.44119 37.9229 3.62891 38.7359 3.62891 39.7375V50.6246C3.62891 51.6268 4.44119 52.4391 5.44342 52.4391ZM7.25794 41.552H16.9295C17.7821 41.552 18.52 40.9587 18.7022 40.1259C19.2975 37.4084 20.3742 34.8184 21.8811 32.4794C22.3411 31.7621 22.239 30.8201 21.6359 30.2169L14.7882 23.3693L19.9213 18.2354L26.7675 25.0831C27.3707 25.6877 28.3134 25.7898 29.0321 25.3291C31.3719 23.8229 33.9611 22.7462 36.6786 22.1501C37.5107 21.9673 38.1047 21.2294 38.1047 20.3767V10.7052H45.3628V20.3767C45.3628 21.2294 45.9568 21.9673 46.7889 22.1501C49.5064 22.7462 52.0956 23.8229 54.4354 25.3291C55.1541 25.7898 56.0968 25.6877 56.7 25.0831L63.5462 18.2354L68.6779 23.3693L61.8317 30.2148C61.2271 30.8187 61.1257 31.7614 61.5864 32.4794C63.0933 34.8198 64.1686 37.4091 64.7632 40.1273C64.9461 40.9601 65.684 41.5541 66.5359 41.5541H76.2096V48.8122H66.5359C65.684 48.8122 64.9461 49.4054 64.7632 50.2383C64.1686 52.9558 63.0926 55.545 61.5864 57.8826C61.1264 58.6006 61.2285 59.5426 61.8317 60.1458L68.6793 66.9921L63.5462 72.1273L56.7 65.2789C56.0968 64.675 55.1541 64.5729 54.4354 65.0337C52.0971 66.5406 49.5085 67.6172 46.791 68.2126C45.9575 68.3941 45.3628 69.1326 45.3628 69.9853V79.6568H38.1047V69.9853C38.1047 69.1326 37.51 68.3941 36.6765 68.2126C33.959 67.6172 31.3705 66.5406 29.0321 65.0337C28.3134 64.5729 27.3707 64.675 26.7675 65.2789L19.9213 72.1273L14.7896 66.9935L21.6359 60.1472C22.2405 59.544 22.3418 58.6013 21.8811 57.8826C20.3742 55.5429 19.2975 52.953 18.7022 50.2347C18.5193 49.4019 17.7821 48.81 16.9295 48.81H7.25794V41.552Z" fill="#039355"/>
<path d="M41.7349 59.6983C49.7521 59.6983 56.251 53.2 56.251 45.1821C56.251 37.165 49.7521 30.666 41.7349 30.666C33.7177 30.666 27.2188 37.165 27.2188 45.1821C27.2273 53.1951 33.722 59.6898 41.7349 59.6983ZM41.7349 34.295C47.7469 34.295 52.622 39.1701 52.622 45.1821C52.622 51.1949 47.7469 56.0692 41.7349 56.0692C35.7229 56.0692 30.8478 51.1949 30.8478 45.1821C30.8542 39.1716 35.7243 34.3014 41.7349 34.295Z" fill="#039355"/>
<path d="M41.7331 65.1401C52.7563 65.1401 61.6928 56.2043 61.6928 45.1804C61.6928 34.1572 52.7563 25.2207 41.7331 25.2207C30.7099 25.2207 21.7734 34.1572 21.7734 45.1804C21.7869 56.1986 30.7149 65.1273 41.7331 65.1401ZM41.7331 28.8497C50.7525 28.8497 58.0638 36.161 58.0638 45.1804C58.0638 54.1998 50.7525 61.511 41.7331 61.511C32.7137 61.511 25.4025 54.1998 25.4025 45.1804C25.4124 36.1659 32.7179 28.8597 41.7331 28.8497Z" fill="#039355"/>
<path d="M107.056 90.5441V76.028C107.056 75.0264 106.244 74.2134 105.242 74.2134H101.613V59.6973C101.613 58.6958 100.8 57.8828 99.7983 57.8828H83.4676C82.4654 57.8828 81.6531 58.6958 81.6531 59.6973V74.2134H72.5805C71.5783 74.2134 70.766 75.0264 70.766 76.028V90.5441H12.7015C7.69314 90.5505 3.63529 94.6083 3.62891 99.6167V103.246C3.63529 108.255 7.69314 112.313 12.7015 112.318H107.056C112.065 112.313 116.123 108.255 116.129 103.246V99.6167C116.123 94.6083 112.065 90.5505 107.056 90.5441ZM103.427 90.5441H90.7257V77.8425H103.427V90.5441ZM85.2821 61.5118H97.9837V74.2134H85.2821V61.5118ZM74.395 77.8425H87.0966V90.5441H74.395V77.8425ZM112.5 103.246C112.5 106.252 110.062 108.689 107.056 108.689H12.7015C9.69549 108.689 7.25794 106.252 7.25794 103.246V99.6167C7.25794 96.6107 9.69549 94.1731 12.7015 94.1731H107.056C110.062 94.1731 112.5 96.6107 112.5 99.6167V103.246Z" fill="#039355"/>
<path d="M59.8791 95.9883C56.8731 95.9883 54.4355 98.4258 54.4355 101.432C54.4355 104.439 56.8731 106.875 59.8791 106.875C62.8851 106.875 65.3227 104.439 65.3227 101.432C65.3227 98.4258 62.8851 95.9883 59.8791 95.9883ZM59.8791 103.246C58.8769 103.246 58.0646 102.434 58.0646 101.432C58.0646 100.43 58.8769 99.6173 59.8791 99.6173C60.8813 99.6173 61.6936 100.43 61.6936 101.432C61.6936 102.434 60.8813 103.246 59.8791 103.246Z" fill="#039355"/>
<path d="M41.7346 95.9883C38.7286 95.9883 36.291 98.4258 36.291 101.432C36.291 104.439 38.7286 106.875 41.7346 106.875C44.7406 106.875 47.1781 104.439 47.1781 101.432C47.1781 98.4258 44.7406 95.9883 41.7346 95.9883ZM41.7346 103.246C40.7323 103.246 39.92 102.434 39.92 101.432C39.92 100.43 40.7323 99.6173 41.7346 99.6173C42.7368 99.6173 43.5491 100.43 43.5491 101.432C43.5491 102.434 42.7368 103.246 41.7346 103.246Z" fill="#039355"/>
<path d="M78.0236 95.9883C75.0176 95.9883 72.5801 98.4258 72.5801 101.432C72.5801 104.439 75.0176 106.875 78.0236 106.875C81.0296 106.875 83.4672 104.439 83.4672 101.432C83.4672 98.4258 81.0296 95.9883 78.0236 95.9883ZM78.0236 103.246C77.0214 103.246 76.2091 102.434 76.2091 101.432C76.2091 100.43 77.0214 99.6173 78.0236 99.6173C79.0259 99.6173 79.8381 100.43 79.8381 101.432C79.8381 102.434 79.0259 103.246 78.0236 103.246Z" fill="#039355"/>
<path d="M23.5881 95.9883C20.5821 95.9883 18.1445 98.4258 18.1445 101.432C18.1445 104.439 20.5821 106.875 23.5881 106.875C26.5941 106.875 29.0316 104.439 29.0316 101.432C29.0316 98.4258 26.5941 95.9883 23.5881 95.9883ZM23.5881 103.246C22.5858 103.246 21.7736 102.434 21.7736 101.432C21.7736 100.43 22.5858 99.6173 23.5881 99.6173C24.5903 99.6173 25.4026 100.43 25.4026 101.432C25.4026 102.434 24.5903 103.246 23.5881 103.246Z" fill="#039355"/>
<path d="M96.1701 95.9883C93.1641 95.9883 90.7266 98.4258 90.7266 101.432C90.7266 104.439 93.1641 106.875 96.1701 106.875C99.1761 106.875 101.614 104.439 101.614 101.432C101.614 98.4258 99.1761 95.9883 96.1701 95.9883ZM96.1701 103.246C95.1679 103.246 94.3556 102.434 94.3556 101.432C94.3556 100.43 95.1679 99.6173 96.1701 99.6173C97.1724 99.6173 97.9846 100.43 97.9846 101.432C97.9846 102.434 97.1724 103.246 96.1701 103.246Z" fill="#039355"/>
</svg>
