<svg width="120" height="120" viewBox="0 0 120 120" fill="none" xmlns="http://www.w3.org/2000/svg">
<g clip-path="url(#clip0_89:1856)">
<path d="M115.927 55.4322L107.755 51.8957L100.816 38.3929C98.9409 34.6957 95.1365 32.3917 90.9839 32.4185H79.035V29.0428C79.035 22.9343 74.159 17.9512 68.0506 17.9512H10.9316C4.82314 17.9512 0.000712859 22.9611 0.000712859 29.0428V80.7499C-0.0528697 84.4739 2.92096 87.5281 6.64495 87.5817C6.67174 87.5817 6.69853 87.5817 6.75211 87.5817H8.17205C8.17205 87.8496 8.14526 87.9568 8.14526 88.1175C8.11847 95.7798 14.3073 102.022 21.9696 102.049C29.6319 102.076 35.8742 95.887 35.901 88.2247C35.901 88.1711 35.901 88.1443 35.901 88.0907C35.901 87.9032 35.901 87.8228 35.8742 87.5549H82.0356C82.0356 87.8228 82.0356 87.93 82.0356 88.0907C82.0088 95.753 88.1976 101.995 95.8599 102.022C103.522 102.049 109.765 95.8602 109.791 88.1979C109.791 88.1443 109.791 88.1175 109.791 88.0639C109.791 87.8764 109.791 87.796 109.791 87.5281H113.247C116.971 87.5281 119.999 84.5007 119.999 80.7767C119.999 80.7499 119.999 80.7231 119.999 80.6695V61.6477C120.052 59.0222 118.445 56.5306 115.927 55.4322ZM22.0499 96.7175C17.3347 96.7175 13.5303 92.9132 13.5303 88.1979C13.5303 83.4826 17.3347 79.6783 22.0499 79.6783C26.7652 79.6783 30.5696 83.4826 30.5696 88.1979C30.5696 92.8864 26.7384 96.7175 22.0499 96.7175ZM73.6767 82.277H34.615C32.3646 77.3742 27.435 74.2396 22.0499 74.2664C16.6381 74.2396 11.7353 77.3474 9.48483 82.277H6.75211C5.92159 82.277 5.35897 81.634 5.35897 80.8035V67.006H73.6767V82.277ZM73.6767 29.0696V61.6477H5.35897V29.0696C5.35897 25.935 7.79698 23.3362 10.9316 23.3362H68.0506C71.1851 23.363 73.7035 25.935 73.6767 29.0428V29.0696ZM79.035 37.8035H90.9839C93.1004 37.7767 95.083 38.9287 96.0742 40.8309L101.432 51.1991H79.035V37.8035ZM95.9403 96.7175C91.225 96.7175 87.4207 92.9132 87.4207 88.1979C87.4207 83.4826 91.225 79.6783 95.9403 79.6783C100.656 79.6783 104.46 83.4826 104.46 88.1979C104.46 92.8864 100.656 96.7175 95.9403 96.7175ZM114.667 80.8035C114.667 81.634 114.105 82.277 113.274 82.277H108.505C105.264 75.3381 97.0119 72.3375 90.073 75.5792C87.1259 76.9456 84.7415 79.33 83.3752 82.277H79.035V56.5574H105.29L113.81 60.3082C114.346 60.5761 114.694 61.1655 114.667 61.7549V80.8035Z" fill="#039355"/>
</g>
<defs>
<clipPath id="clip0_89:1856">
<rect width="120" height="120" fill="white"/>
</clipPath>
</defs>
</svg>
