<svg width="120" height="120" viewBox="0 0 120 120" fill="none" xmlns="http://www.w3.org/2000/svg">
<path d="M9.10938 34.9707H27.648C28.6187 34.9707 29.4058 34.1839 29.4058 33.2129C29.4058 32.2419 28.6187 31.4551 27.648 31.4551H9.10938C8.13859 31.4551 7.35156 32.2419 7.35156 33.2129C7.35156 34.1839 8.13836 34.9707 9.10938 34.9707Z" fill="#039355"/>
<path d="M27.0147 43.4336H19.6914C18.7206 43.4336 17.9336 44.2204 17.9336 45.1914C17.9336 46.1624 18.7206 46.9492 19.6914 46.9492H27.0147C27.9855 46.9492 28.7725 46.1624 28.7725 45.1914C28.7725 44.2204 27.9855 43.4336 27.0147 43.4336Z" fill="#039355"/>
<path d="M1.75781 55.623H19.6903C20.6611 55.623 21.4481 54.8363 21.4481 53.8652C21.4481 52.8942 20.6611 52.1074 19.6903 52.1074H1.75781C0.787031 52.1074 0 52.8942 0 53.8652C0 54.8363 0.787031 55.623 1.75781 55.623Z" fill="#039355"/>
<path d="M29.4058 86.7852C29.4058 85.8141 28.6187 85.0273 27.648 85.0273H9.10938C8.13859 85.0273 7.35156 85.8141 7.35156 86.7852C7.35156 87.7562 8.13859 88.543 9.10938 88.543H27.648C28.6187 88.543 29.4058 87.7562 29.4058 86.7852Z" fill="#039355"/>
<path d="M27.0147 73.0488H19.6914C18.7206 73.0488 17.9336 73.8356 17.9336 74.8066C17.9336 75.7777 18.7206 76.5645 19.6914 76.5645H27.0147C27.9855 76.5645 28.7725 75.7777 28.7725 74.8066C28.7725 73.8356 27.9855 73.0488 27.0147 73.0488Z" fill="#039355"/>
<path d="M21.4481 66.1328C21.4481 65.1618 20.6611 64.375 19.6903 64.375H1.75781C0.787031 64.375 0 65.1618 0 66.1328C0 67.1038 0.787031 67.8906 1.75781 67.8906H19.6903C20.6611 67.8906 21.4481 67.1038 21.4481 66.1328Z" fill="#039355"/>
<path d="M74.8906 38.8648C75.8616 38.8648 76.6484 38.078 76.6484 37.107V34.4238C76.6484 33.4528 75.8616 32.666 74.8906 32.666C73.9196 32.666 73.1328 33.4528 73.1328 34.4238V37.107C73.1328 38.078 73.9196 38.8648 74.8906 38.8648Z" fill="#039355"/>
<path d="M94.2145 40.6729C93.5278 39.9866 92.415 39.9866 91.7285 40.6729L89.8313 42.5702C89.1448 43.2569 89.1448 44.3697 89.8313 45.0562C90.5182 45.7427 91.6308 45.7424 92.3173 45.0562L94.2145 43.1589C94.9008 42.4724 94.9008 41.3596 94.2145 40.6729Z" fill="#039355"/>
<path d="M97.7813 58.2422C96.8102 58.2422 96.0234 59.029 96.0234 60C96.0234 60.971 96.8102 61.7578 97.7813 61.7578H100.464C101.435 61.7578 102.222 60.971 102.222 60C102.222 59.029 101.435 58.2422 100.464 58.2422H97.7813Z" fill="#039355"/>
<path d="M92.3173 74.9424C91.6306 74.2562 90.5178 74.2562 89.8313 74.9424C89.1448 75.6291 89.1448 76.742 89.8313 77.4284L91.7285 79.3257C92.4155 80.0122 93.5281 80.012 94.2146 79.3257C94.901 78.639 94.901 77.5262 94.2146 76.8397L92.3173 74.9424Z" fill="#039355"/>
<path d="M73.1328 82.8906V85.5735C73.1328 86.5445 73.9196 87.3313 74.8906 87.3313C75.8616 87.3313 76.6484 86.5445 76.6484 85.5735V82.8906C76.6484 81.9196 75.8616 81.1328 74.8906 81.1328C73.9196 81.1328 73.1328 81.9198 73.1328 82.8906Z" fill="#039355"/>
<path d="M57.459 74.9424L55.5617 76.8397C54.8753 77.5264 54.8753 78.6392 55.5617 79.3257C56.2485 80.0122 57.3613 80.012 58.0475 79.3257L59.9448 77.4284C60.6313 76.7417 60.6313 75.6289 59.9448 74.9424C59.2585 74.2562 58.1455 74.2562 57.459 74.9424Z" fill="#039355"/>
<path d="M49.3164 58.2422C48.3456 58.2422 47.5586 59.029 47.5586 60C47.5586 60.971 48.3456 61.7578 49.3164 61.7578H51.9995C52.9703 61.7578 53.7573 60.971 53.7573 60C53.7573 59.029 52.9703 58.2422 51.9995 58.2422H49.3164Z" fill="#039355"/>
<path d="M59.9448 42.5702L58.0475 40.6729C57.361 39.9866 56.248 39.9866 55.5617 40.6729C54.8753 41.3596 54.8753 42.4724 55.5617 43.1589L57.459 45.0562C58.1457 45.7427 59.2585 45.7424 59.9448 45.0562C60.6313 44.3697 60.6313 43.2569 59.9448 42.5702Z" fill="#039355"/>
<path d="M84.343 59.9982C84.343 59.0272 83.5562 58.2404 82.5852 58.2404H76.6484V45.1895C76.6484 44.2184 75.8616 43.4316 74.8906 43.4316C73.9196 43.4316 73.1328 44.2184 73.1328 45.1895V59.9982C73.1328 60.9692 73.9196 61.756 74.8906 61.756H82.5852C83.5559 61.756 84.343 60.9692 84.343 59.9982Z" fill="#039355"/>
<path d="M108.221 59.7095C109.191 59.6507 109.928 58.8175 109.87 57.8486C108.751 39.4026 93.3867 24.9531 74.8903 24.9531C55.5656 24.9531 39.8438 40.675 39.8438 59.9999C39.8438 79.3246 55.5656 95.0465 74.8903 95.0465C92.2034 95.0465 106.976 82.3616 109.546 65.2441C109.69 64.2841 109.029 63.389 108.069 63.2448C107.111 63.1012 106.214 63.7619 106.069 64.7223C103.761 80.1006 90.4821 91.5311 74.8903 91.5311C57.5041 91.5311 43.3594 77.3863 43.3594 60.0002C43.3594 42.614 57.5041 28.469 74.8903 28.469C91.5312 28.469 105.354 41.4677 106.36 58.0619C106.419 59.0303 107.251 59.7658 108.221 59.7095Z" fill="#039355"/>
<path d="M74.8899 14.8887C68.7069 14.8887 62.649 16.1714 57.0732 18.5702H26.0586C25.0878 18.5702 24.3008 19.357 24.3008 20.328C24.3008 21.2991 25.0878 22.0859 26.0586 22.0859H50.4601C47.1608 24.2093 44.1235 26.7705 41.4456 29.7274C40.794 30.4467 40.8488 31.5584 41.5684 32.2102C42.2881 32.862 43.3993 32.8069 44.0513 32.0873C51.9268 23.3916 63.1672 18.4043 74.8899 18.4043C97.8254 18.4043 116.485 37.0636 116.485 59.9991C116.485 82.9343 97.8256 101.594 74.8899 101.594C51.9545 101.594 33.2952 82.9345 33.2952 59.9991C33.2952 51.9675 35.5895 44.1722 39.9296 37.4555C40.4565 36.6401 40.2226 35.5521 39.4072 35.0252C38.5918 34.4986 37.5038 34.732 36.9767 35.5477C32.2681 42.8339 29.7795 51.289 29.7795 59.9991C29.7795 75.8817 38.0309 89.872 50.4713 97.9123H26.0588C25.088 97.9123 24.301 98.6991 24.301 99.6701C24.301 100.641 25.088 101.428 26.0588 101.428H57.0491C62.5241 103.795 68.5562 105.109 74.8902 105.109C99.7639 105.109 120.001 84.873 120.001 59.9991C120.001 35.1251 99.7639 14.8887 74.8899 14.8887Z" fill="#039355"/>
</svg>
