<svg width="120" height="120" viewBox="0 0 120 120" fill="none" xmlns="http://www.w3.org/2000/svg">
<path d="M92.1056 88.665L72.87 80.7956C70.7456 79.9275 69.375 77.8838 69.375 75.5887V74.2425C75.1444 70.2562 79.5506 64.6312 82.0481 58.125H82.5C87.6694 58.125 91.875 53.9194 91.875 48.75C91.875 47.58 91.6331 46.47 91.2394 45.435L92.0381 44.6625C93.8063 42.9956 94.9331 40.8356 95.2031 40.29C97.5863 36.5213 98.1469 31.9669 96.7388 27.7706C95.445 23.9062 92.6156 20.7525 88.8919 18.9713C88.2862 14.9794 86.0662 11.4 82.6856 9.02062C79.305 6.63937 75.1106 5.7 71.0231 6.39563C68.1281 3.51 64.1719 1.875 60 1.875C55.8281 1.875 51.8719 3.51 48.975 6.39563C44.8913 5.7075 40.695 6.64125 37.3144 9.02062C33.9319 11.4 31.7138 14.9794 31.1063 18.9713C27.3844 20.7525 24.555 23.9081 23.2594 27.7688C21.8512 31.965 22.4137 36.5213 24.795 40.29C25.0594 40.8263 26.1488 42.9169 27.8606 44.5688L28.8094 45.2681C28.3781 46.3481 28.125 47.5181 28.125 48.75C28.125 53.9194 32.3306 58.125 37.5 58.125H37.9519C40.4494 64.6331 44.8556 70.2562 50.625 74.2425V75.5887C50.625 77.8838 49.2544 79.9256 47.13 80.7937L27.8944 88.6631C16.6444 93.2663 9.375 104.096 9.375 116.25V118.125H110.625V116.25C110.625 104.096 103.356 93.2662 92.1056 88.665ZM76.7138 94.8075L69.0919 100.524L74.1431 85.3687L75.21 85.8056L76.7138 94.8075ZM44.7881 85.8056L45.855 85.3687L50.9062 100.524L43.2844 94.8075L44.7881 85.8056ZM51.0994 101.104L55.5244 114.375H55.1512L47.4131 106.637L51.0994 101.104ZM49.3125 83.8875C49.7306 83.67 50.1281 83.4262 50.5031 83.1544L60 92.6513L69.4969 83.1544C69.8719 83.4262 70.2675 83.67 70.6875 83.8875L60.525 114.375H59.475L49.3125 83.8875ZM68.9006 101.104L72.5869 106.637L64.8487 114.375H64.4756L68.9006 101.104ZM80.2631 50.3438C80.1281 51.2269 79.95 52.1156 79.7175 53.0531C79.0013 53.8969 77.9812 54.375 76.875 54.375H69.1012C67.6706 54.375 66.3862 53.58 65.7469 52.3031L64.9087 50.625H55.0913L54.2531 52.3031C53.6138 53.58 52.3275 54.375 50.8988 54.375H43.125C42.0187 54.375 40.9987 53.8969 40.2825 53.0531C40.05 52.1156 39.8719 51.225 39.7369 50.3438H39.7331C39.5006 48.81 39.375 47.2444 39.375 45.6581V41.25H80.625V45.6581C80.625 47.2463 80.4994 48.81 80.265 50.3438H80.2631ZM80.625 37.5H68.2763L73.4156 32.3606L80.625 36.6862V37.5ZM39.375 37.5V36.6862L46.5844 32.3587L51.7238 37.5H39.375ZM53.1244 37.5L60 32.3438L66.8756 37.5H53.1244ZM83.2763 54.2962C83.3869 53.865 83.4806 53.4263 83.5744 52.9894C83.6438 52.6688 83.7075 52.35 83.7656 52.0331C84.1519 49.9556 84.375 47.8294 84.375 45.6581V43.4719C86.5519 44.2481 88.125 46.3106 88.125 48.7519C88.125 51.5869 86.0081 53.9137 83.2763 54.2962ZM30.3787 41.7844C29.0081 40.4194 28.1475 38.6025 28.14 38.5875L28.0163 38.3606C26.1994 35.5369 25.7625 32.1112 26.8181 28.9613C27.8775 25.7962 30.3263 23.2594 33.5344 22.0013L34.635 21.5719L34.7194 20.3925C34.9613 17.0719 36.6937 14.0437 39.4744 12.0863C42.2738 10.1156 45.8194 9.44812 49.1906 10.2638L50.3006 10.53L51.0469 9.66937C53.2744 7.09875 56.5369 5.625 60 5.625C63.4631 5.625 66.7256 7.09875 68.9531 9.66937L69.6994 10.53L70.8094 10.2638C74.1787 9.44625 77.7244 10.1156 80.5275 12.0863C83.3063 14.0437 85.0387 17.07 85.2806 20.3925L85.365 21.5719L86.4656 22.0013C89.6738 23.2594 92.1225 25.7962 93.1819 28.9631C94.2375 32.1112 93.8006 35.5369 91.9837 38.3606L91.86 38.5875C91.8506 38.6063 90.9206 40.5656 89.4488 41.9531L89.19 42.2025C87.9038 40.8881 86.2425 39.945 84.3731 39.5644V34.5638L72.8325 27.6412L67.3237 33.15L60 27.6562L52.6763 33.15L47.1675 27.6412L35.625 34.5638V39.5644C33.7856 39.9394 32.1412 40.8544 30.8625 42.1369L30.3787 41.7844ZM31.875 48.75C31.875 46.3088 33.4481 44.2463 35.625 43.47V45.6562C35.625 47.8256 35.8481 49.9538 36.2325 52.0294C36.2925 52.3463 36.3544 52.6669 36.4256 52.9894C36.5194 53.4263 36.6131 53.8631 36.7238 54.2944C33.9919 53.9137 31.875 51.5869 31.875 48.75ZM41.955 58.02C42.3394 58.0819 42.7294 58.125 43.125 58.125H50.8988C53.6081 58.125 56.0588 56.6981 57.3956 54.375H62.6062C63.9431 56.6981 66.3937 58.125 69.1031 58.125H76.875C77.2706 58.125 77.6606 58.0819 78.045 58.02C74.6906 65.745 68.2725 71.9513 60 74.8913C51.7275 71.9513 45.3075 65.745 41.955 58.02ZM59.4075 78.6525L60 78.8512L60.5925 78.6544C62.3681 78.0619 64.0706 77.3381 65.6906 76.4944C65.8256 77.8969 66.2644 79.2169 66.9619 80.3869L60 87.3487L53.0362 80.385C53.7337 79.215 54.1725 77.895 54.3075 76.4925C55.9275 77.3363 57.6319 78.0619 59.4075 78.6525ZM29.3156 92.1375L40.7081 87.4762L39.2137 96.4425L46.2056 101.687L42.585 107.115L49.8488 114.375H31.875V103.125H28.125V114.375H13.1906C13.89 104.522 20.0625 95.9212 29.3156 92.1375ZM91.875 114.375V103.125H88.125V114.375H70.1513L77.4131 107.113L73.7925 101.685L80.7844 96.4406L79.29 87.4744L90.6825 92.1356C99.9356 95.9212 106.108 104.52 106.808 114.373H91.875V114.375Z" fill="#039355"/>
<path d="M67.5 60H63.75C63.75 62.0681 62.0681 63.75 60 63.75C57.9319 63.75 56.25 62.0681 56.25 60H52.5C52.5 64.1363 55.8637 67.5 60 67.5C64.1363 67.5 67.5 64.1363 67.5 60Z" fill="#039355"/>
</svg>
