<?xml version="1.0" encoding="UTF-8"?>
<!DOCTYPE svg PUBLIC "-//W3C//DTD SVG 1.1//EN" "http://www.w3.org/Graphics/SVG/1.1/DTD/svg11.dtd">
<!-- Creator: CorelDRAW 2020 (64-Bit) -->
<svg xmlns="http://www.w3.org/2000/svg" xml:space="preserve" width="137px" height="120px" version="1.1" style="shape-rendering:geometricPrecision; text-rendering:geometricPrecision; image-rendering:optimizeQuality; fill-rule:evenodd; clip-rule:evenodd"
viewBox="0 0 143.35 125.98"
 xmlns:xlink="http://www.w3.org/1999/xlink"
 xmlns:xodm="http://www.corel.com/coreldraw/odm/2003">
 <defs>
  <style type="text/css">
   <![CDATA[
    .fil0 {fill:#039355}
   ]]>
  </style>
 </defs>
 <g id="Слой_x0020_1">
  <metadata id="CorelCorpID_0Corel-Layer"/>
  <path class="fil0" d="M33.6 109.18l80.91 0c2.36,0 6.27,-5.05 7.78,-6.78l3.98 -5.26c2.35,-3.55 4.66,-7.36 6.63,-11.29l2.05 -4.11 0 35.84 -101.35 0 0 -8.4zm-19.6 -8.4c0.59,-1.12 1.26,-1.82 1.96,-2.8 3.76,-5.32 6.18,-9.73 8.86,-15.78 5.01,-11.26 8.78,-27.53 8.78,-40.22l101.07 0c0,17.94 -6.27,37.31 -16.24,51.52 -1.54,2.19 -3.23,4.14 -5.1,6.09 -1.59,1.65 -1.43,1.2 -4.42,1.19l-94.91 0zm19.6 -84l17.08 0 0 4.76c0,4.84 8.4,4.84 8.4,0l0 -4.76 20.99 0 0 4.76c0,4.84 8.4,4.84 8.4,0l0 -4.76 21.28 0 0 4.76c0,4.84 8.4,4.84 8.4,0l0 -4.76 16.8 0 0 16.8 -101.35 0 0 -16.8zm17.08 -13.15l0 4.76 -21.84 0c-4.89,0 -3.64,7.78 -3.64,11.75 0,23.84 0.71,36.29 -8.08,58.28 -1.19,2.99 -2.37,5.09 -3.87,7.89 -1.74,3.26 -5.29,8.96 -8,11.6l-1.85 2.07c-2.53,2.29 -3.4,2.14 -3.4,5.56 0,1.72 1.92,3.64 3.64,3.64l21.56 0 0 13.16c0,1.71 1.92,3.64 3.64,3.64l110.87 0c1.72,0 3.64,-1.93 3.64,-3.64l0 -110.32c0,-1.71 -1.92,-3.63 -3.64,-3.63l-21.56 0 0 -4.76c0,-4.84 -8.4,-4.84 -8.4,0l0 4.76 -21.28 0 0 -4.76c0,-4.84 -8.4,-4.84 -8.4,0l0 4.76 -20.99 0 0 -4.76c0,-4.84 -8.4,-4.84 -8.4,0z"/>
 </g>
</svg>
