<svg width="120" height="120" viewBox="0 0 120 120" fill="none" xmlns="http://www.w3.org/2000/svg">
<g clip-path="url(#clip0_89:1888)">
<path d="M25.0781 44.5313C25.0781 63.9167 40.849 79.6876 60.2344 79.6876C79.6198 79.6876 95.3907 63.9167 95.3907 44.5313C95.3907 25.1459 79.6198 9.375 60.2344 9.375C40.849 9.375 25.0781 25.1459 25.0781 44.5313ZM60.2344 14.0625C77.0353 14.0625 90.7032 27.7304 90.7032 44.5313C90.7032 61.3322 77.0353 75.0001 60.2344 75.0001C43.4336 75.0001 29.7656 61.3322 29.7656 44.5313C29.7656 27.7304 43.4336 14.0625 60.2344 14.0625Z" fill="#039355"/>
<path d="M38.5271 40.3526L47.6119 49.3037L45.5217 61.884C45.3761 62.7602 45.7378 63.6427 46.4565 64.1646C47.1742 64.6864 48.1255 64.7569 48.9138 64.3486L60.2324 58.4709L71.5502 64.3486C72.3321 64.7542 73.2833 64.691 74.0075 64.1646C74.7262 63.6427 75.0878 62.7602 74.9422 61.884L72.8521 49.3037L81.9369 40.3526C82.5695 39.73 82.7957 38.8035 82.521 37.9585C82.2463 37.1143 81.5185 36.4982 80.6405 36.3654L68.0327 34.4676L62.3281 23.0591C61.9317 22.2654 61.1196 21.7637 60.2324 21.7637C59.3444 21.7637 58.5332 22.2654 58.1359 23.0591L52.4312 34.4676L39.8235 36.3654C38.9455 36.4973 38.2176 37.1143 37.943 37.9585C37.6683 38.8035 37.8954 39.73 38.5271 40.3526ZM54.3328 38.9216C55.0872 38.8081 55.739 38.3347 56.0805 37.6527L60.2324 29.3479L64.3844 37.6527C64.7259 38.3347 65.3777 38.8081 66.1321 38.9216L75.3085 40.3031L68.6956 46.8171C68.1527 47.3527 67.9037 48.119 68.0282 48.8716L69.5498 58.0278L61.3118 53.7504C60.974 53.5746 60.6032 53.4868 60.2324 53.4868C59.8616 53.4868 59.4909 53.5746 59.1521 53.7504L50.9142 58.0278L52.4358 48.8716C52.5612 48.119 52.3122 47.3527 51.7684 46.8171L45.1564 40.3031L54.3328 38.9216Z" fill="#039355"/>
<path d="M62.5781 2.34375C62.5781 3.63831 61.5289 4.68751 60.2344 4.68751C58.9398 4.68751 57.8906 3.63831 57.8906 2.34375C57.8906 1.0492 58.9398 0 60.2344 0C61.5289 0 62.5781 1.0492 62.5781 2.34375Z" fill="#039355"/>
<path d="M49.1886 1.38209C29.4727 6.41475 15.7031 24.1586 15.7031 44.5319C15.7031 57.1854 21.0233 69.1083 30.3626 77.5522L16.2424 102.437C15.7883 103.238 15.845 104.231 16.387 104.974C16.929 105.718 17.8555 106.076 18.7573 105.889L34.7928 102.559L40.4288 118.441C40.7346 119.305 41.5174 119.91 42.4311 119.992C43.3448 120.073 44.2209 119.613 44.6741 118.815L60.2344 91.4591L75.7939 118.815C76.2132 119.552 76.9932 120 77.83 120C77.8987 120 77.9682 119.997 78.0369 119.992C78.9506 119.91 79.7334 119.304 80.0401 118.441L85.6752 102.559L101.711 105.889C102.612 106.076 103.539 105.718 104.081 104.974C104.624 104.231 104.68 103.238 104.226 102.437L90.1054 77.5522C99.4447 69.1083 104.765 57.1854 104.765 44.5319C104.765 24.1586 90.9953 6.41475 71.2803 1.38209C70.0251 1.06166 68.7498 1.8188 68.4293 3.07307C68.1089 4.32735 68.866 5.60359 70.1203 5.92403C87.7589 10.4266 100.078 26.3028 100.078 44.5319C100.078 66.7179 82.0597 84.3757 60.2344 84.3757C38.3936 84.3757 20.3906 66.7032 20.3906 44.5319C20.3906 26.3028 32.7091 10.4266 50.3476 5.92403C51.6019 5.60359 52.3591 4.32735 52.0395 3.07307C51.7191 1.8188 50.4438 1.06166 49.1886 1.38209ZM43.1333 112.045L38.5273 99.0653C38.1354 97.9612 36.9892 97.3158 35.842 97.5538L22.8754 100.246L34.0503 80.5515C40.5661 85.2885 48.2813 88.1742 56.3041 88.8883L43.1333 112.045ZM84.626 97.5538C83.4797 97.3158 82.3326 97.9612 81.9407 99.0653L77.3356 112.045L64.1639 88.8883C72.1876 88.1742 79.9018 85.2885 86.4186 80.5515L97.5935 100.246L84.626 97.5538Z" fill="#039355"/>
</g>
<defs>
<clipPath id="clip0_89:1888">
<rect width="120" height="120" fill="white"/>
</clipPath>
</defs>
</svg>
