<svg width="50" height="50" viewBox="0 0 50 50" fill="none" xmlns="http://www.w3.org/2000/svg">
<path d="M38.3773 36.9437L30.3625 33.6648C29.4773 33.3031 28.9062 32.4516 28.9062 31.4953V30.9344C31.3102 29.2734 33.1461 26.9297 34.1867 24.2188H34.375C36.5289 24.2188 38.2812 22.4664 38.2812 20.3125C38.2812 19.825 38.1805 19.3625 38.0164 18.9312L38.3492 18.6094C39.0859 17.9148 39.5555 17.0148 39.668 16.7875C40.6609 15.2172 40.8945 13.3195 40.3078 11.5711C39.7688 9.96094 38.5898 8.64687 37.0383 7.90469C36.7859 6.24141 35.8609 4.75 34.4523 3.75859C33.0437 2.76641 31.2961 2.375 29.593 2.66484C28.3867 1.4625 26.7383 0.78125 25 0.78125C23.2617 0.78125 21.6133 1.4625 20.4062 2.66484C18.7047 2.37812 16.9562 2.76719 15.5477 3.75859C14.1383 4.75 13.2141 6.24141 12.9609 7.90469C11.4102 8.64687 10.2312 9.96172 9.69141 11.5703C9.10469 13.3188 9.33906 15.2172 10.3313 16.7875C10.4414 17.0109 10.8953 17.882 11.6086 18.5703L12.0039 18.8617C11.8242 19.3117 11.7188 19.7992 11.7188 20.3125C11.7188 22.4664 13.4711 24.2188 15.625 24.2188H15.8133C16.8539 26.9305 18.6898 29.2734 21.0938 30.9344V31.4953C21.0938 32.4516 20.5227 33.3023 19.6375 33.6641L11.6227 36.943C6.93516 38.8609 3.90625 43.3734 3.90625 48.4375V49.2188H46.0938V48.4375C46.0938 43.3734 43.0648 38.8609 38.3773 36.9437ZM31.9641 39.5031L28.7883 41.8852L30.893 35.5703L31.3375 35.7523L31.9641 39.5031ZM18.6617 35.7523L19.1062 35.5703L21.2109 41.8852L18.0352 39.5031L18.6617 35.7523ZM21.2914 42.1266L23.1352 47.6562H22.9797L19.7555 44.432L21.2914 42.1266ZM20.5469 34.9531C20.7211 34.8625 20.8867 34.7609 21.043 34.6477L25 38.6047L28.957 34.6477C29.1133 34.7609 29.2781 34.8625 29.4531 34.9531L25.2188 47.6562H24.7812L20.5469 34.9531ZM28.7086 42.1266L30.2445 44.432L27.0203 47.6562H26.8648L28.7086 42.1266ZM33.443 20.9766C33.3867 21.3445 33.3125 21.7148 33.2156 22.1055C32.9172 22.457 32.4922 22.6562 32.0312 22.6562H28.7922C28.1961 22.6562 27.6609 22.325 27.3945 21.793L27.0453 21.0938H22.9547L22.6055 21.793C22.3391 22.325 21.8031 22.6562 21.2078 22.6562H17.9688C17.5078 22.6562 17.0828 22.457 16.7844 22.1055C16.6875 21.7148 16.6133 21.3438 16.557 20.9766H16.5555C16.4586 20.3375 16.4062 19.6852 16.4062 19.0242V17.1875H33.5938V19.0242C33.5938 19.6859 33.5414 20.3375 33.4437 20.9766H33.443ZM33.5938 15.625H28.4484L30.5898 13.4836L33.5938 15.2859V15.625ZM16.4062 15.625V15.2859L19.4102 13.4828L21.5516 15.625H16.4062ZM22.1352 15.625L25 13.4766L27.8648 15.625H22.1352ZM34.6984 22.6234C34.7445 22.4438 34.7836 22.2609 34.8227 22.0789C34.8516 21.9453 34.8781 21.8125 34.9023 21.6805C35.0633 20.8148 35.1562 19.9289 35.1562 19.0242V18.1133C36.0633 18.4367 36.7188 19.2961 36.7188 20.3133C36.7188 21.4945 35.8367 22.4641 34.6984 22.6234ZM12.6578 17.4102C12.0867 16.8414 11.7281 16.0844 11.725 16.0781L11.6734 15.9836C10.9164 14.807 10.7344 13.3797 11.1742 12.0672C11.6156 10.7484 12.6359 9.69141 13.9727 9.16719L14.4312 8.98828L14.4664 8.49688C14.5672 7.11328 15.2891 5.85156 16.4477 5.03594C17.6141 4.21484 19.0914 3.93672 20.4961 4.27656L20.9586 4.3875L21.2695 4.02891C22.1977 2.95781 23.557 2.34375 25 2.34375C26.443 2.34375 27.8023 2.95781 28.7305 4.02891L29.0414 4.3875L29.5039 4.27656C30.9078 3.93594 32.3852 4.21484 33.5531 5.03594C34.7109 5.85156 35.4328 7.1125 35.5336 8.49688L35.5688 8.98828L36.0273 9.16719C37.3641 9.69141 38.3844 10.7484 38.8258 12.068C39.2656 13.3797 39.0836 14.807 38.3266 15.9836L38.275 16.0781C38.2711 16.0859 37.8836 16.9023 37.2703 17.4805L37.1625 17.5844C36.6266 17.0367 35.9344 16.6438 35.1555 16.4852V14.4016L30.3469 11.5172L28.0516 13.8125L25 11.5234L21.9484 13.8125L19.6531 11.5172L14.8438 14.4016V16.4852C14.0773 16.6414 13.3922 17.0227 12.8594 17.557L12.6578 17.4102ZM13.2812 20.3125C13.2812 19.2953 13.9367 18.4359 14.8438 18.1125V19.0234C14.8438 19.9273 14.9367 20.8141 15.0969 21.6789C15.1219 21.8109 15.1477 21.9445 15.1773 22.0789C15.2164 22.2609 15.2555 22.443 15.3016 22.6227C14.1633 22.4641 13.2812 21.4945 13.2812 20.3125ZM17.4812 24.175C17.6414 24.2008 17.8039 24.2188 17.9688 24.2188H21.2078C22.3367 24.2188 23.3578 23.6242 23.9148 22.6562H26.0859C26.643 23.6242 27.6641 24.2188 28.793 24.2188H32.0312C32.1961 24.2188 32.3586 24.2008 32.5188 24.175C31.1211 27.3937 28.4469 29.9797 25 31.2047C21.5531 29.9797 18.8781 27.3937 17.4812 24.175ZM24.7531 32.7719L25 32.8547L25.2469 32.7727C25.9867 32.5258 26.6961 32.2242 27.3711 31.8727C27.4273 32.457 27.6102 33.007 27.9008 33.4945L25 36.3953L22.0984 33.4938C22.3891 33.0063 22.5719 32.4563 22.6281 31.8719C23.3031 32.2234 24.0133 32.5258 24.7531 32.7719ZM12.2148 38.3906L16.9617 36.4484L16.3391 40.1844L19.2523 42.3695L17.7437 44.6312L20.7703 47.6562H13.2812V42.9688H11.7188V47.6562H5.49609C5.7875 43.5508 8.35938 39.9672 12.2148 38.3906ZM38.2812 47.6562V42.9688H36.7188V47.6562H29.2297L32.2555 44.6305L30.7469 42.3687L33.6602 40.1836L33.0375 36.4477L37.7844 38.3898C41.6398 39.9672 44.2117 43.55 44.5031 47.6555H38.2812V47.6562Z" fill="white"/>
<path d="M28.125 25H26.5625C26.5625 25.8617 25.8617 26.5625 25 26.5625C24.1383 26.5625 23.4375 25.8617 23.4375 25H21.875C21.875 26.7234 23.2766 28.125 25 28.125C26.7234 28.125 28.125 26.7234 28.125 25Z" fill="white"/>
</svg>
