<svg width="50" height="50" viewBox="0 0 50 50" fill="none" xmlns="http://www.w3.org/2000/svg">
<path d="M3.79883 14.5703H11.5232C11.9277 14.5703 12.2557 14.2425 12.2557 13.8379C12.2557 13.4333 11.9277 13.1055 11.5232 13.1055H3.79883C3.39434 13.1055 3.06641 13.4333 3.06641 13.8379C3.06641 14.2425 3.39424 14.5703 3.79883 14.5703Z" fill="white"/>
<path d="M11.2564 18.0957H8.20508C7.80059 18.0957 7.47266 18.4235 7.47266 18.8281C7.47266 19.2327 7.80059 19.5605 8.20508 19.5605H11.2564C11.6609 19.5605 11.9889 19.2327 11.9889 18.8281C11.9889 18.4235 11.6609 18.0957 11.2564 18.0957Z" fill="white"/>
<path d="M0.732422 23.1758H8.2043C8.60879 23.1758 8.93672 22.8479 8.93672 22.4434C8.93672 22.0388 8.60879 21.7109 8.2043 21.7109H0.732422C0.32793 21.7109 0 22.0388 0 22.4434C0 22.8479 0.32793 23.1758 0.732422 23.1758Z" fill="white"/>
<path d="M12.2557 36.1602C12.2557 35.7556 11.9277 35.4277 11.5232 35.4277H3.79883C3.39434 35.4277 3.06641 35.7556 3.06641 36.1602C3.06641 36.5647 3.39434 36.8926 3.79883 36.8926H11.5232C11.9277 36.8926 12.2557 36.5647 12.2557 36.1602Z" fill="white"/>
<path d="M11.2564 30.4375H8.20508C7.80059 30.4375 7.47266 30.7653 7.47266 31.1699C7.47266 31.5745 7.80059 31.9023 8.20508 31.9023H11.2564C11.6609 31.9023 11.9889 31.5745 11.9889 31.1699C11.9889 30.7653 11.6609 30.4375 11.2564 30.4375Z" fill="white"/>
<path d="M8.93672 27.5547C8.93672 27.1501 8.60879 26.8223 8.2043 26.8223H0.732422C0.32793 26.8223 0 27.1501 0 27.5547C0 27.9593 0.32793 28.2871 0.732422 28.2871H8.2043C8.60879 28.2871 8.93672 27.9593 8.93672 27.5547Z" fill="white"/>
<path d="M31.2051 16.1941C31.6097 16.1941 31.9375 15.8663 31.9375 15.4617V14.3438C31.9375 13.9392 31.6097 13.6113 31.2051 13.6113C30.8005 13.6113 30.4727 13.9392 30.4727 14.3438V15.4617C30.4727 15.8663 30.8005 16.1941 31.2051 16.1941Z" fill="white"/>
<path d="M39.2557 16.9469C38.9696 16.6609 38.5059 16.6609 38.2199 16.9469L37.4294 17.7374C37.1433 18.0235 37.1433 18.4872 37.4294 18.7732C37.7156 19.0593 38.1792 19.0592 38.4652 18.7732L39.2557 17.9827C39.5417 17.6967 39.5417 17.233 39.2557 16.9469Z" fill="white"/>
<path d="M40.7402 24.2676C40.3356 24.2676 40.0078 24.5954 40.0078 25C40.0078 25.4046 40.3356 25.7324 40.7402 25.7324H41.8581C42.2627 25.7324 42.5905 25.4046 42.5905 25C42.5905 24.5954 42.2627 24.2676 41.8581 24.2676H40.7402Z" fill="white"/>
<path d="M38.4652 31.2262C38.1791 30.9402 37.7154 30.9402 37.4294 31.2262C37.1433 31.5123 37.1433 31.976 37.4294 32.262L38.2199 33.0525C38.5061 33.3386 38.9697 33.3385 39.2557 33.0525C39.5418 32.7664 39.5418 32.3027 39.2557 32.0167L38.4652 31.2262Z" fill="white"/>
<path d="M30.4727 34.5371V35.655C30.4727 36.0596 30.8005 36.3874 31.2051 36.3874C31.6097 36.3874 31.9375 36.0596 31.9375 35.655V34.5371C31.9375 34.1325 31.6097 33.8047 31.2051 33.8047C30.8005 33.8047 30.4727 34.1326 30.4727 34.5371Z" fill="white"/>
<path d="M23.9426 31.2262L23.152 32.0167C22.866 32.3028 22.866 32.7665 23.152 33.0525C23.4382 33.3386 23.9018 33.3385 24.1878 33.0525L24.9783 32.262C25.2643 31.9759 25.2643 31.5122 24.9783 31.2262C24.6924 30.9402 24.2286 30.9402 23.9426 31.2262Z" fill="white"/>
<path d="M20.5488 24.2676C20.1443 24.2676 19.8164 24.5954 19.8164 25C19.8164 25.4046 20.1443 25.7324 20.5488 25.7324H21.6668C22.0713 25.7324 22.3992 25.4046 22.3992 25C22.3992 24.5954 22.0713 24.2676 21.6668 24.2676H20.5488Z" fill="white"/>
<path d="M24.9783 17.7374L24.1878 16.9469C23.9017 16.6609 23.438 16.6609 23.152 16.9469C22.866 17.233 22.866 17.6967 23.152 17.9827L23.9426 18.7732C24.2287 19.0593 24.6924 19.0592 24.9783 18.7732C25.2643 18.4872 25.2643 18.0235 24.9783 17.7374Z" fill="white"/>
<path d="M35.1436 24.9984C35.1436 24.5938 34.8157 24.266 34.4111 24.266H31.9375V18.8281C31.9375 18.4235 31.6097 18.0957 31.2051 18.0957C30.8005 18.0957 30.4727 18.4235 30.4727 18.8281V24.9984C30.4727 25.403 30.8005 25.7309 31.2051 25.7309H34.4111C34.8156 25.7309 35.1436 25.403 35.1436 24.9984Z" fill="white"/>
<path d="M45.0923 24.8783C45.4961 24.8538 45.8035 24.5066 45.779 24.1029C45.3131 16.4171 38.9111 10.3965 31.2043 10.3965C23.1523 10.3965 16.6016 16.9473 16.6016 24.9993C16.6016 33.0513 23.1523 39.602 31.2043 39.602C38.4181 39.602 44.5734 34.3167 45.6442 27.1844C45.7043 26.7844 45.4287 26.4114 45.0286 26.3514C44.6296 26.2915 44.2557 26.5668 44.1956 26.967C43.2337 33.3746 37.7009 38.1373 31.2043 38.1373C23.9601 38.1373 18.0664 32.2437 18.0664 24.9994C18.0664 17.7552 23.9601 11.8614 31.2043 11.8614C38.138 11.8614 43.8977 17.2775 44.3168 24.1918C44.3412 24.5953 44.6881 24.9018 45.0923 24.8783Z" fill="white"/>
<path d="M31.2038 6.20312C28.6275 6.20312 26.1034 6.7376 23.7802 7.73711H10.8574C10.4529 7.73711 10.125 8.06494 10.125 8.46953C10.125 8.87412 10.4529 9.20195 10.8574 9.20195H21.0247C19.65 10.0867 18.3845 11.1539 17.2687 12.3859C16.9972 12.6856 17.02 13.1488 17.3198 13.4204C17.6197 13.692 18.0827 13.669 18.3544 13.3692C21.6358 9.746 26.3193 7.66797 31.2038 7.66797C40.7603 7.66797 48.5351 15.4427 48.5351 24.9991C48.5351 34.5555 40.7604 42.3303 31.2038 42.3303C21.6474 42.3303 13.8727 34.5556 13.8727 24.9991C13.8727 21.6526 14.8286 18.4046 16.637 15.606C16.8565 15.2662 16.7591 14.8129 16.4193 14.5934C16.0796 14.3739 15.6263 14.4712 15.4066 14.811C13.4447 17.847 12.4078 21.3699 12.4078 24.9991C12.4078 31.6169 15.8459 37.4462 21.0294 40.7963H10.8575C10.453 40.7963 10.1251 41.1241 10.1251 41.5287C10.1251 41.9333 10.453 42.2611 10.8575 42.2611H23.7701C26.0514 43.2474 28.5647 43.7951 31.2039 43.7951C41.568 43.7951 49.9999 35.3633 49.9999 24.9991C49.9999 14.635 41.568 6.20312 31.2038 6.20312Z" fill="white"/>
</svg>
