<svg width="50" height="50" viewBox="0 0 50 50" fill="none" xmlns="http://www.w3.org/2000/svg">
<path d="M33.8297 20.2543L33.282 18.791C32.7922 18.9746 32.2953 19.1426 31.8047 19.291L32.2563 20.7863C32.7789 20.6285 33.3086 20.4496 33.8297 20.2543Z" fill="white"/>
<path d="M28.9062 23.6559V21.5559C29.4859 21.4629 30.068 21.3488 30.6453 21.216L30.293 19.6934C29.5398 19.8684 28.7766 20.0059 28.0242 20.1051L27.3438 20.1949V23.6566C27.3438 23.866 27.3484 24.0746 27.3594 24.2824L28.9203 24.2027C28.9109 24.0207 28.9062 23.8395 28.9062 23.6559Z" fill="white"/>
<path d="M14.8438 10.1562C12.2586 10.1562 10.1562 12.2586 10.1562 14.8438C10.1562 17.4289 12.2586 19.5312 14.8438 19.5312C17.4289 19.5312 19.5312 17.4289 19.5312 14.8438C19.5312 12.2586 17.4289 10.1562 14.8438 10.1562ZM14.8438 17.9688C13.1203 17.9688 11.7188 16.5672 11.7188 14.8438C11.7188 13.1203 13.1203 11.7188 14.8438 11.7188C16.5672 11.7188 17.9688 13.1203 17.9688 14.8438C17.9688 16.5672 16.5672 17.9688 14.8438 17.9688Z" fill="white"/>
<path d="M35.5297 14.6789L35.157 14.4766L34.7844 14.6789C31.7937 16.2992 28.4086 17.1672 24.9953 17.1875L24.2188 17.1922V23.657C24.2188 30.4359 28.507 36.5438 34.8898 38.8547L35.1562 38.9508L35.4227 38.8547C41.8055 36.5438 46.0938 30.4359 46.0938 23.657V17.1922L45.3172 17.1875C41.9062 17.1672 38.5219 16.2992 35.5297 14.6789ZM44.5312 23.657C44.5312 29.6859 40.7758 35.1273 35.1562 37.2859C29.5367 35.1266 25.7812 29.6852 25.7812 23.657V18.7313C29.0453 18.5977 32.2633 17.7461 35.157 16.2492C38.0516 17.7461 41.2687 18.5977 44.5312 18.7313V23.657Z" fill="white"/>
<path d="M32.0305 24.6758L28.582 28.1242L33.593 33.1352L43.2914 23.4367L39.843 19.9883L33.593 26.2383L32.0305 24.6758ZM41.082 23.4367L33.593 30.9258L30.7914 28.1242L32.0305 26.8852L33.593 28.4477L39.843 22.1977L41.082 23.4367Z" fill="white"/>
<path d="M49.2188 14.0625H45.4461C41.9352 14.0625 38.5359 13.0336 35.5852 11.0656L35.1266 10.7992L34.6961 11.0859C32.9172 12.2727 30.9586 13.1133 28.9062 13.593V11.8813L26.8477 11.3969C26.5883 10.4914 26.2266 9.61953 25.7688 8.79375L26.8828 6.99453L22.693 2.80469L20.8937 3.91875C20.068 3.46094 19.1961 3.09922 18.2906 2.83984L17.8062 0.78125H11.8813L11.3969 2.83984C10.4914 3.09922 9.61953 3.46094 8.79375 3.91875L6.99453 2.80469L2.80469 6.99453L3.91875 8.79375C3.46094 9.61953 3.09922 10.4914 2.83984 11.3969L0.78125 11.8813V17.8062L2.83984 18.2906C3.09922 19.1961 3.46094 20.068 3.91875 20.8937L2.80469 22.693L6.99453 26.8828L8.79375 25.7688C9.61953 26.2266 10.4914 26.5883 11.3969 26.8477L11.8813 28.9062H17.8062L18.2906 26.8477C19.1961 26.5883 20.068 26.2266 20.8937 25.7688L21.2539 25.9914C21.6727 29.3688 22.9711 32.5367 24.9609 35.1945L22.3328 44.8312L26.1906 43.8664L29.1102 48.7328L31.7297 40.8742C32.7484 41.3891 33.8164 41.825 34.9359 42.1547L35.1562 42.2203L35.3766 42.1555C36.4961 41.8258 37.5641 41.3898 38.5828 40.875L41.2023 48.7336L44.1219 43.8672L47.9797 44.832L45.3516 35.1953C47.7945 31.9312 49.2188 27.9047 49.2188 23.6562V14.0625ZM20.9109 23.9422L20.5023 24.1906C19.5531 24.7656 18.5281 25.1914 17.4531 25.4539L16.9875 25.568L16.5688 27.3438H13.1187L12.7008 25.568L12.2352 25.4539C11.1602 25.1914 10.1352 24.7656 9.18594 24.1906L8.77734 23.9422L7.22578 24.9023L4.78594 22.4625L5.74609 20.9109L5.49766 20.5023C4.92266 19.5531 4.49688 18.5281 4.23438 17.4531L4.12031 16.9875L2.34375 16.5688V13.1187L4.11953 12.7008L4.23359 12.2352C4.49609 11.1602 4.92188 10.1352 5.49687 9.18594L5.74531 8.77734L4.78516 7.225L7.225 4.78516L8.77656 5.74531L9.18516 5.49687C10.1344 4.92188 11.1594 4.49609 12.2344 4.23359L12.7 4.11953L13.1187 2.34375H16.5688L16.9867 4.11953L17.4523 4.23359C18.5273 4.49609 19.5523 4.92188 20.5016 5.49687L20.9102 5.74531L22.4617 4.78516L24.9016 7.225L23.9414 8.77656L24.1898 9.18516C24.7648 10.1344 25.1906 11.1594 25.4531 12.2344L25.5672 12.7L27.3438 13.1187V13.8859C26.5273 14 25.7008 14.0625 24.8664 14.0625H24.1789C23.7797 9.25781 19.75 5.46875 14.8438 5.46875C9.67422 5.46875 5.46875 9.67422 5.46875 14.8438C5.46875 20.0133 9.67422 24.2188 14.8438 24.2188C17.1719 24.2188 19.3906 23.3445 21.0938 21.8219V23.657C21.0938 23.7945 21.1078 23.9297 21.1109 24.0664L20.9109 23.9422ZM21.0938 14.0625V19.5148C19.6195 21.482 17.3055 22.6562 14.8438 22.6562C10.5359 22.6562 7.03125 19.1516 7.03125 14.8438C7.03125 10.5359 10.5359 7.03125 14.8438 7.03125C18.8875 7.03125 22.2234 10.1203 22.6164 14.0625H21.0938ZM28.7023 45.0164L26.9344 42.0703L24.5422 42.668L26.182 36.6539C27.3945 37.9828 28.7914 39.1453 30.3414 40.0984L28.7023 45.0164ZM45.7703 42.668L43.3781 42.0703L41.6102 45.0164L39.9711 40.0984C41.5211 39.1453 42.918 37.9828 44.1305 36.6539L45.7703 42.668ZM47.6562 23.6562C47.6562 31.3859 42.5281 38.3164 35.1562 40.5906C27.7844 38.3164 22.6562 31.3859 22.6562 23.6562V15.625H24.8664C28.5172 15.625 32.0562 14.6023 35.1555 12.65C38.2398 14.5984 41.7875 15.625 45.4461 15.625H47.6562V23.6562Z" fill="white"/>
</svg>
