<svg width="50" height="50" viewBox="0 0 50 50" fill="none" xmlns="http://www.w3.org/2000/svg">
<path d="M46.7773 44.015H45.3723V1.78789C45.3739 1.57463 45.2908 1.36944 45.1413 1.21734C44.9918 1.06524 44.7881 0.978651 44.5748 0.976562H5.7335C5.52023 0.978651 5.31649 1.06524 5.16698 1.21734C5.01746 1.36943 4.93438 1.57462 4.93594 1.78789V44.015H3.22266C3.01553 44.0153 2.81695 44.0977 2.67049 44.2441C2.52402 44.3906 2.44164 44.5892 2.44141 44.7963V48.2422C2.44164 48.4493 2.52402 48.6479 2.67049 48.7944C2.81695 48.9408 3.01553 49.0232 3.22266 49.0234H46.7773C46.9845 49.0232 47.1831 48.9408 47.3295 48.7944C47.476 48.6479 47.5584 48.4493 47.5586 48.2422V44.7963C47.5584 44.5892 47.476 44.3906 47.3295 44.2441C47.1831 44.0977 46.9845 44.0153 46.7773 44.015ZM25.2832 44.015L25.4927 24.5742H44.2004V44.015H25.2832ZM44.2004 23.4023H25.5049L25.7338 2.14844H44.2006L44.2004 23.4023ZM24.5618 2.14844L24.3328 23.4023H6.10781V2.14844H24.5618ZM6.10781 24.5742H24.3207L24.1113 44.015H6.10781V24.5742ZM46.3867 47.8516H3.61328V45.1869H46.3867V47.8516Z" fill="#0BCF6B"/>
<path d="M10.4459 11.8172C10.5734 11.9062 10.7309 11.9408 10.8839 11.9136C11.0369 11.8864 11.1728 11.7995 11.2618 11.6721L15.7149 5.29448C15.8039 5.16705 15.8386 5.0095 15.8114 4.85649C15.7842 4.70347 15.6973 4.56753 15.5699 4.47856C15.4424 4.3896 15.2849 4.3549 15.1319 4.38209C14.9789 4.40929 14.8429 4.49616 14.7539 4.62358L10.3008 11.0013C10.2568 11.0644 10.2256 11.1356 10.209 11.2107C10.1925 11.2859 10.1909 11.3636 10.2044 11.4393C10.2178 11.5151 10.2461 11.5875 10.2876 11.6523C10.329 11.7172 10.3828 11.7732 10.4459 11.8172Z" fill="#0BCF6B"/>
<path d="M13.9984 12.5142C14.0634 12.5554 14.1359 12.5835 14.2117 12.5967C14.2875 12.61 14.3652 12.6082 14.4403 12.5914C14.5154 12.5746 14.5864 12.5432 14.6494 12.499C14.7124 12.4547 14.766 12.3985 14.8072 12.3335L17.2639 8.46342C17.3461 8.33224 17.373 8.17387 17.3388 8.0229C17.3046 7.87192 17.212 7.74062 17.0814 7.65766C16.9507 7.5747 16.7925 7.54683 16.6413 7.58013C16.4901 7.61343 16.3583 7.7052 16.2745 7.83539L13.8179 11.7054C13.7766 11.7704 13.7486 11.8428 13.7353 11.9186C13.7221 11.9944 13.7239 12.0721 13.7406 12.1472C13.7574 12.2223 13.7888 12.2934 13.833 12.3563C13.8773 12.4193 13.9335 12.4729 13.9984 12.5142Z" fill="#0BCF6B"/>
<path d="M35.914 29.1582C35.8509 29.1142 35.7797 29.083 35.7045 29.0664C35.6294 29.0499 35.5517 29.0483 35.4759 29.0618C35.4002 29.0753 35.3278 29.1035 35.263 29.145C35.1981 29.1864 35.1421 29.2402 35.0981 29.3034L30.6455 35.681C30.6007 35.744 30.5688 35.8153 30.5517 35.8908C30.5345 35.9662 30.5325 36.0443 30.5457 36.1206C30.5589 36.1968 30.5871 36.2697 30.6286 36.335C30.6701 36.4003 30.7242 36.4567 30.7876 36.501C30.8511 36.5453 30.9227 36.5766 30.9983 36.593C31.0739 36.6095 31.152 36.6109 31.2281 36.597C31.3042 36.5831 31.3768 36.5543 31.4418 36.5122C31.5067 36.4701 31.5626 36.4156 31.6064 36.3518L36.059 29.9742C36.103 29.9111 36.1342 29.8399 36.1508 29.7648C36.1673 29.6896 36.1689 29.6119 36.1555 29.5362C36.142 29.4604 36.1137 29.388 36.0723 29.3232C36.0309 29.2583 35.9771 29.2023 35.914 29.1582Z" fill="#0BCF6B"/>
<path d="M37.4252 32.3315C37.294 32.2482 37.1351 32.2205 36.9834 32.2543C36.8318 32.2882 36.6998 32.3809 36.6165 32.5121L34.1598 36.3822C34.1185 36.4471 34.0904 36.5196 34.0771 36.5954C34.0639 36.6712 34.0657 36.7489 34.0824 36.824C34.0992 36.8991 34.1305 36.9702 34.1748 37.0332C34.219 37.0962 34.2752 37.1499 34.3401 37.1911C34.4051 37.2324 34.4776 37.2605 34.5534 37.2738C34.6292 37.287 34.7069 37.2853 34.782 37.2685C34.8571 37.2518 34.9282 37.2204 34.9912 37.1762C35.0542 37.1319 35.1078 37.0757 35.1491 37.0108L37.6058 33.1407C37.6471 33.0757 37.6752 33.0032 37.6885 32.9274C37.7017 32.8515 37.7 32.7738 37.6832 32.6986C37.6664 32.6235 37.635 32.5524 37.5907 32.4894C37.5465 32.4264 37.4902 32.3727 37.4252 32.3315Z" fill="#0BCF6B"/>
</svg>
