<svg width="50" height="50" viewBox="0 0 50 50" fill="none" xmlns="http://www.w3.org/2000/svg">
<g clip-path="url(#clip0_89:1740)">
<path d="M9.76562 38.4766C9.3338 38.4766 8.98438 38.1275 8.98438 37.6953V7.22656C8.98438 6.79474 9.3338 6.44531 9.76562 6.44531C10.1978 6.44531 10.5469 6.79474 10.5469 7.22656V37.6953C10.5469 38.1275 10.1978 38.4766 9.76562 38.4766Z" fill="#0BCF6B"/>
<path d="M9.76562 32.2265C9.3338 32.2265 8.98438 31.8774 8.98438 31.4452C8.98438 20.1377 24.0329 13.0633 24.6734 12.7673C25.0663 12.5869 25.5298 12.757 25.7095 13.1492C25.8907 13.5406 25.7202 14.0048 25.328 14.186C25.1804 14.2539 10.5469 21.1398 10.5469 31.4452C10.5469 31.8774 10.1978 32.2265 9.76562 32.2265Z" fill="#0BCF6B"/>
<path d="M40.2377 32.2264C39.8058 32.2264 39.4564 31.8773 39.4564 31.4451C39.4564 21.1397 24.8244 14.2538 24.6767 14.1859C24.2846 14.0047 24.1133 13.5404 24.2956 13.1491C24.4753 12.7577 24.9384 12.5868 25.3313 12.7672C25.9722 13.0632 41.0189 20.1376 41.0189 31.4451C41.0189 31.8773 40.6699 32.2264 40.2377 32.2264Z" fill="#0BCF6B"/>
<path d="M40.2344 38.4766C39.8026 38.4766 39.4531 38.1275 39.4531 37.6953V7.22656C39.4531 6.79474 39.8026 6.44531 40.2344 6.44531C40.6666 6.44531 41.0156 6.79474 41.0156 7.22656V37.6953C41.0156 38.1275 40.6666 38.4766 40.2344 38.4766Z" fill="#0BCF6B"/>
<path d="M40.2344 23.2422H9.76562C9.3338 23.2422 8.98438 22.8931 8.98438 22.4609C8.98438 22.0291 9.3338 21.6797 9.76562 21.6797H40.2344C40.6666 21.6797 41.0156 22.0291 41.0156 22.4609C41.0156 22.8931 40.6666 23.2422 40.2344 23.2422Z" fill="#0BCF6B"/>
<path d="M37.8906 44.9306H12.1094C11.6776 44.9306 11.3281 44.5816 11.3281 44.1494V16.0245C11.3281 7.7401 21.5118 1.66063 24.633 -0.00524543C24.8619 -0.12846 25.1392 -0.12846 25.3681 -0.00524543C28.49 1.66063 38.6718 7.73933 38.6718 16.0245V44.1494C38.6718 44.5816 38.3228 44.9306 37.8906 44.9306ZM12.8906 43.3681H37.1093V16.0245C37.1093 8.89557 28.2829 3.37686 25.0007 1.57289C21.7182 3.37686 12.8906 8.89633 12.8906 16.0245V43.3681Z" fill="#0BCF6B"/>
<path d="M12.1094 24.4141C11.6776 24.4141 11.3281 24.065 11.3281 23.6328V21.2891C11.3281 20.8572 11.6776 20.5078 12.1094 20.5078C12.5416 20.5078 12.8906 20.8572 12.8906 21.2891V23.6328C12.8906 24.065 12.5416 24.4141 12.1094 24.4141Z" fill="#0BCF6B"/>
<path d="M12.1094 23.2422H9.76562C9.3338 23.2422 8.98438 22.8931 8.98438 22.4609C8.98438 22.0291 9.3338 21.6797 9.76562 21.6797H12.1094C12.5416 21.6797 12.8906 22.0291 12.8906 22.4609C12.8906 22.8931 12.5416 23.2422 12.1094 23.2422Z" fill="#0BCF6B"/>
<path d="M37.8906 24.4141C37.4588 24.4141 37.1094 24.065 37.1094 23.6328V21.2891C37.1094 20.8572 37.4588 20.5078 37.8906 20.5078C38.3228 20.5078 38.6719 20.8572 38.6719 21.2891V23.6328C38.6719 24.065 38.3228 24.4141 37.8906 24.4141Z" fill="#0BCF6B"/>
<path d="M40.2344 23.2422H37.8906C37.4588 23.2422 37.1094 22.8931 37.1094 22.4609C37.1094 22.0291 37.4588 21.6797 37.8906 21.6797H40.2344C40.6666 21.6797 41.0156 22.0291 41.0156 22.4609C41.0156 22.8931 40.6666 23.2422 40.2344 23.2422Z" fill="#0BCF6B"/>
<path d="M19.9219 23.6328C19.4901 23.6328 19.1406 23.2838 19.1406 22.8516V22.0703C19.1406 21.6385 19.4901 21.2891 19.9219 21.2891C20.3541 21.2891 20.7031 21.6385 20.7031 22.0703V22.8516C20.7031 23.2838 20.3541 23.6328 19.9219 23.6328Z" fill="#0BCF6B"/>
<path d="M30.0781 23.6328C29.6463 23.6328 29.2969 23.2838 29.2969 22.8516V22.0703C29.2969 21.6385 29.6463 21.2891 30.0781 21.2891C30.5103 21.2891 30.8594 21.6385 30.8594 22.0703V22.8516C30.8594 23.2838 30.5103 23.6328 30.0781 23.6328Z" fill="#0BCF6B"/>
<path d="M25 23.6328C24.5682 23.6328 24.2188 23.2838 24.2188 22.8516V22.0703C24.2188 21.6385 24.5682 21.2891 25 21.2891C25.4322 21.2891 25.7812 21.6385 25.7812 22.0703V22.8516C25.7812 23.2838 25.4322 23.6328 25 23.6328Z" fill="#0BCF6B"/>
<path d="M40.2344 23.2422H39.4531C39.0213 23.2422 38.6719 22.8931 38.6719 22.4609C38.6719 22.0291 39.0213 21.6797 39.4531 21.6797H40.2344C40.6666 21.6797 41.0156 22.0291 41.0156 22.4609C41.0156 22.8931 40.6666 23.2422 40.2344 23.2422Z" fill="#0BCF6B"/>
<path d="M40.2344 23.2422H39.4531C39.0213 23.2422 38.6719 22.8931 38.6719 22.4609C38.6719 22.0291 39.0213 21.6797 39.4531 21.6797H40.2344C40.6666 21.6797 41.0156 22.0291 41.0156 22.4609C41.0156 22.8931 40.6666 23.2422 40.2344 23.2422Z" fill="#0BCF6B"/>
<path d="M40.2344 23.2422H39.4531C39.0213 23.2422 38.6719 22.8931 38.6719 22.4609C38.6719 22.0291 39.0213 21.6797 39.4531 21.6797H40.2344C40.6666 21.6797 41.0156 22.0291 41.0156 22.4609C41.0156 22.8931 40.6666 23.2422 40.2344 23.2422Z" fill="#0BCF6B"/>
<path d="M10.5469 23.2422H9.76562C9.3338 23.2422 8.98438 22.8931 8.98438 22.4609C8.98438 22.0291 9.3338 21.6797 9.76562 21.6797H10.5469C10.9791 21.6797 11.3281 22.0291 11.3281 22.4609C11.3281 22.8931 10.9791 23.2422 10.5469 23.2422Z" fill="#0BCF6B"/>
<path d="M10.5469 23.2422H9.76562C9.3338 23.2422 8.98438 22.8931 8.98438 22.4609C8.98438 22.0291 9.3338 21.6797 9.76562 21.6797H10.5469C10.9791 21.6797 11.3281 22.0291 11.3281 22.4609C11.3281 22.8931 10.9791 23.2422 10.5469 23.2422Z" fill="#0BCF6B"/>
<path d="M10.5469 23.2422H9.76562C9.3338 23.2422 8.98438 22.8931 8.98438 22.4609C8.98438 22.0291 9.3338 21.6797 9.76562 21.6797H10.5469C10.9791 21.6797 11.3281 22.0291 11.3281 22.4609C11.3281 22.8931 10.9791 23.2422 10.5469 23.2422Z" fill="#0BCF6B"/>
<path d="M23.0469 31.8359C22.6151 31.8359 22.2656 31.4869 22.2656 31.0547V13.8672C22.2656 13.4354 22.6151 13.0859 23.0469 13.0859C23.4791 13.0859 23.8281 13.4354 23.8281 13.8672V31.0547C23.8281 31.4869 23.4791 31.8359 23.0469 31.8359Z" fill="#0BCF6B"/>
<path d="M26.9531 31.8359C26.5213 31.8359 26.1719 31.4869 26.1719 31.0547V13.8672C26.1719 13.4354 26.5213 13.0859 26.9531 13.0859C27.3853 13.0859 27.7344 13.4354 27.7344 13.8672V31.0547C27.7344 31.4869 27.3853 31.8359 26.9531 31.8359Z" fill="#0BCF6B"/>
<path d="M23.0465 24.4133C22.8699 24.4133 22.6933 24.3541 22.5464 24.2328C22.2153 23.9563 22.1707 23.4642 22.4465 23.1323L24.4004 20.7885C24.6769 20.4578 25.1683 20.4128 25.5013 20.6882C25.8324 20.9648 25.877 21.4573 25.6012 21.7891L23.6473 24.1329C23.4928 24.3179 23.2708 24.4133 23.0465 24.4133Z" fill="#0BCF6B"/>
<path d="M26.9538 24.4142C26.7295 24.4142 26.5079 24.3188 26.3522 24.133L24.3998 21.7893C24.1233 21.4582 24.1687 20.9649 24.5006 20.6891C24.8321 20.4126 25.3241 20.4572 25.6007 20.7902L27.5531 23.134C27.8296 23.4651 27.7843 23.9579 27.4524 24.2337C27.307 24.355 27.1304 24.4142 26.9538 24.4142Z" fill="#0BCF6B"/>
<path d="M28.5153 24.4151C28.434 24.4151 28.3505 24.4021 28.2685 24.3746C27.8599 24.2384 27.6379 23.7963 27.7748 23.3862L28.5561 21.0425C28.6927 20.6339 29.1317 20.4104 29.5441 20.5489C29.9527 20.6847 30.1747 21.1268 30.0381 21.5369L29.2569 23.8806C29.1474 24.2083 28.8426 24.4151 28.5153 24.4151Z" fill="#0BCF6B"/>
<path d="M21.488 24.4151C21.1607 24.4151 20.8559 24.2084 20.7476 23.8807L19.9663 21.537C19.8294 21.1276 20.0506 20.6847 20.4599 20.5489C20.8731 20.4105 21.3114 20.6333 21.4483 21.0426L22.2296 23.3863C22.3661 23.7956 22.1453 24.2385 21.7356 24.3747C21.6528 24.4022 21.5693 24.4151 21.488 24.4151Z" fill="#0BCF6B"/>
<path d="M28.5156 23.2422H21.4844C21.0526 23.2422 20.7031 22.8931 20.7031 22.4609C20.7031 22.0291 21.0526 21.6797 21.4844 21.6797H28.5156C28.9478 21.6797 29.2969 22.0291 29.2969 22.4609C29.2969 22.8931 28.9478 23.2422 28.5156 23.2422Z" fill="#0BCF6B"/>
<path d="M23.8281 26.1719C23.3963 26.1719 23.0469 25.8228 23.0469 25.3906V19.5312C23.0469 19.0994 23.3963 18.75 23.8281 18.75C24.2603 18.75 24.6094 19.0994 24.6094 19.5312V25.3906C24.6094 25.8228 24.2603 26.1719 23.8281 26.1719Z" fill="#0BCF6B"/>
<path d="M26.1719 26.1726C25.7401 26.1726 25.3906 25.8236 25.3906 25.3914V19.5312C25.3906 19.0994 25.7401 18.75 26.1719 18.75C26.6041 18.75 26.9531 19.0994 26.9531 19.5312V25.3914C26.9531 25.8236 26.6041 26.1726 26.1719 26.1726Z" fill="#0BCF6B"/>
<path d="M29.2969 23.2422H20.7031C20.2713 23.2422 19.9219 22.8931 19.9219 22.4609C19.9219 22.0291 20.2713 21.6797 20.7031 21.6797H29.2969C29.7291 21.6797 30.0781 22.0291 30.0781 22.4609C30.0781 22.8931 29.7291 23.2422 29.2969 23.2422Z" fill="#0BCF6B"/>
<path d="M25 25.1953C23.4924 25.1953 22.2656 23.9689 22.2656 22.4609C22.2656 20.9534 23.4924 19.7266 25 19.7266C26.5079 19.7266 27.7344 20.9534 27.7344 22.4609C27.7344 23.9689 26.5079 25.1953 25 25.1953ZM25 21.2891C24.3538 21.2891 23.8281 21.8151 23.8281 22.4609C23.8281 23.1071 24.3538 23.6328 25 23.6328C25.6462 23.6328 26.1719 23.1071 26.1719 22.4609C26.1719 21.8151 25.6462 21.2891 25 21.2891Z" fill="#0BCF6B"/>
<path d="M25 28.3203C24.5682 28.3203 24.2188 27.9713 24.2188 27.5391V17.3828C24.2188 16.951 24.5682 16.6016 25 16.6016C25.4322 16.6016 25.7812 16.951 25.7812 17.3828V27.5391C25.7812 27.9713 25.4322 28.3203 25 28.3203Z" fill="#0BCF6B"/>
<path d="M37.8901 28.5149C37.6903 28.5149 37.49 28.4382 37.3378 28.286L26.7917 17.7399C26.4861 17.4343 26.4861 16.9407 26.7917 16.6351C27.0972 16.33 27.5908 16.33 27.8964 16.6351L38.4425 27.1812C38.7481 27.4868 38.7481 27.9804 38.4425 28.286C38.2903 28.4382 38.09 28.5149 37.8901 28.5149Z" fill="#0BCF6B"/>
<path d="M23.0479 28.6487C22.848 28.6487 22.6481 28.5724 22.4955 28.4198L11.6198 17.5448C11.3142 17.2393 11.3142 16.7457 11.6198 16.4401C11.9254 16.1345 12.419 16.1345 12.7245 16.4401L23.6002 27.315C23.9058 27.6206 23.9058 28.1142 23.6002 28.4198C23.448 28.5724 23.2481 28.6487 23.0479 28.6487Z" fill="#0BCF6B"/>
<path d="M12.139 28.5149C11.9391 28.5149 11.7392 28.4382 11.5866 28.286C11.281 27.9804 11.281 27.4868 11.5866 27.1812L22.1327 16.6351C22.4383 16.33 22.9319 16.33 23.2374 16.6351C23.543 16.9407 23.543 17.4343 23.2374 17.7399L12.6913 28.286C12.5391 28.4382 12.3388 28.5149 12.139 28.5149Z" fill="#0BCF6B"/>
<path d="M26.9827 28.6487C26.7828 28.6487 26.5825 28.5724 26.4303 28.4198C26.1248 28.1142 26.1248 27.6206 26.4303 27.315L37.306 16.4401C37.6116 16.1345 38.1052 16.1345 38.4108 16.4401C38.7163 16.7457 38.7163 17.2393 38.4108 17.5448L27.5351 28.4198C27.3829 28.5724 27.1826 28.6487 26.9827 28.6487Z" fill="#0BCF6B"/>
<path d="M37.8906 23.2422H29.2969C28.8651 23.2422 28.5156 22.8931 28.5156 22.4609C28.5156 22.0291 28.8651 21.6797 29.2969 21.6797H37.8906C38.3228 21.6797 38.6719 22.0291 38.6719 22.4609C38.6719 22.8931 38.3228 23.2422 37.8906 23.2422Z" fill="#0BCF6B"/>
<path d="M20.7031 23.2422H12.1094C11.6776 23.2422 11.3281 22.8931 11.3281 22.4609C11.3281 22.0291 11.6776 21.6797 12.1094 21.6797H20.7031C21.1353 21.6797 21.4844 22.0291 21.4844 22.4609C21.4844 22.8931 21.1353 23.2422 20.7031 23.2422Z" fill="#0BCF6B"/>
<path d="M25 25.5859C24.5682 25.5859 24.2188 25.2369 24.2188 24.8047V20.1172C24.2188 19.6854 24.5682 19.3359 25 19.3359C25.4322 19.3359 25.7812 19.6854 25.7812 20.1172V24.8047C25.7812 25.2369 25.4322 25.5859 25 25.5859Z" fill="#0BCF6B"/>
</g>
<defs>
<clipPath id="clip0_89:1740">
<rect width="50" height="50" fill="white"/>
</clipPath>
</defs>
</svg>
