<svg width="50" height="50" viewBox="0 0 50 50" fill="none" xmlns="http://www.w3.org/2000/svg">
<path d="M49.2676 47.1623H47.3647V16.2284C47.3647 15.2549 46.5728 14.463 45.5992 14.463H39.3489C38.9444 14.463 38.6165 14.791 38.6165 15.1955C38.6165 15.6 38.9444 15.9279 39.3489 15.9279H45.5992C45.7649 15.9279 45.8998 16.0627 45.8998 16.2284V47.1624H36.6611V43.5065H42.2484C42.9951 43.5065 43.6027 42.899 43.6027 42.1522V40.4198C43.6027 39.6731 42.9952 39.0655 42.2484 39.0655H36.6611V36.9167H42.2484C42.9951 36.9167 43.6027 36.3091 43.6027 35.5624V33.8299C43.6027 33.0833 42.9952 32.4756 42.2484 32.4756H36.6611V30.3268H42.2484C42.9951 30.3268 43.6027 29.7193 43.6027 28.9725V27.2402C43.6027 26.4934 42.9952 25.8859 42.2484 25.8859H36.6611V23.7371H42.2484C42.9951 23.7371 43.6027 23.1296 43.6027 22.3828V20.6504C43.6027 19.9037 42.9952 19.2961 42.2484 19.2961H36.6611V9.49361C36.6611 8.77867 36.2346 8.13912 35.5747 7.86441L20.3092 1.50221C19.7845 1.28346 19.189 1.34088 18.7162 1.65611C18.2433 1.97135 17.9609 2.49908 17.9609 3.06783V6.49986H14.0735V3.49869C14.0735 3.0942 13.7456 2.76627 13.3411 2.76627C12.9366 2.76627 12.6087 3.0942 12.6087 3.49869V6.49996H8.21416C7.24072 6.49996 6.44873 7.29186 6.44873 8.26539V10.5621H3.97949C3.00596 10.5621 2.21387 11.3537 2.21387 12.3267V42.4097H1.76562C0.79209 42.4097 0 43.2018 0 44.1754V46.8619C0 47.8354 0.79209 48.6275 1.76562 48.6275L49.2676 48.6272C49.6721 48.6272 50 48.2993 50 47.8948C50 47.4903 49.6721 47.1623 49.2676 47.1623ZM42.1379 40.5304V42.0418H36.6611V40.5304H42.1379ZM42.1379 33.9406V35.4518H36.6611V33.9406H42.1379ZM42.1379 27.3507V28.8621H36.6611V27.3507H42.1379ZM42.1379 20.761V22.2723H36.6611V20.761H42.1379ZM19.4258 3.06783C19.4258 2.95973 19.4902 2.90065 19.5286 2.87496C19.5671 2.84947 19.6462 2.81266 19.7456 2.85426L28.3754 6.45094V39.4484C28.3754 39.8529 28.7033 40.1808 29.1078 40.1808C29.5123 40.1808 29.8402 39.8529 29.8402 39.4484V7.06139L35.0115 9.21666C35.1238 9.26344 35.1964 9.37213 35.1964 9.49361L35.1961 47.1626H29.8402V42.8829C29.8402 42.4784 29.5123 42.1504 29.1078 42.1504C28.7033 42.1504 28.3754 42.4784 28.3754 42.8829V47.1626H24.7773V23.3354C24.7773 22.244 23.8895 21.356 22.7979 21.356H19.4258V3.06783ZM22.7979 22.8209C23.0816 22.8209 23.3125 23.0516 23.3125 23.3354V47.1624H14.0735V23.3354C14.0735 23.0517 14.3043 22.8209 14.5881 22.8209H22.7979ZM12.6087 23.3354V28.5014H3.67871V22.8209H12.6789C12.6345 22.9853 12.6087 23.1572 12.6087 23.3354ZM3.67871 29.9663H12.6087V35.6479H3.67871V29.9663ZM7.91367 8.26529C7.91367 8.09957 8.04854 7.96471 8.21426 7.96471H17.9606V10.5617H7.91367V8.26529ZM3.97949 12.0268H17.9609V14.6009H8.89326C8.48877 14.6009 8.16084 14.9289 8.16084 15.3334C8.16084 15.7379 8.48877 16.0658 8.89326 16.0658H17.9609V21.356H3.67871V16.0658H5.48223C5.88672 16.0658 6.21465 15.7379 6.21465 15.3334C6.21465 14.9289 5.88672 14.6009 5.48223 14.6009H3.67871V12.3266C3.67871 12.1614 3.81367 12.0268 3.97949 12.0268ZM3.67871 37.1129H12.6087V42.4097H3.67871V37.1129ZM1.76562 47.1626C1.5998 47.1626 1.46484 47.0277 1.46484 46.8618V44.1753C1.46484 44.0094 1.5998 43.8745 1.76562 43.8745H12.6087V47.1626H1.76562Z" fill="#039355"/>
<path d="M16.9961 27.6443C17.4006 27.6443 17.7285 27.3163 17.7285 26.9118V25.3457C17.7285 24.9412 17.4006 24.6133 16.9961 24.6133C16.5916 24.6133 16.2637 24.9412 16.2637 25.3457V26.9118C16.2637 27.3163 16.5915 27.6443 16.9961 27.6443Z" fill="#039355"/>
<path d="M20.3613 27.6443C20.7658 27.6443 21.0938 27.3163 21.0938 26.9118V25.3457C21.0938 24.9412 20.7658 24.6133 20.3613 24.6133C19.9568 24.6133 19.6289 24.9412 19.6289 25.3457V26.9118C19.6289 27.3163 19.9568 27.6443 20.3613 27.6443Z" fill="#039355"/>
<path d="M16.9961 33.1149C17.4006 33.1149 17.7285 32.787 17.7285 32.3825V30.8164C17.7285 30.4119 17.4006 30.084 16.9961 30.084C16.5916 30.084 16.2637 30.4119 16.2637 30.8164V32.3825C16.2637 32.787 16.5915 33.1149 16.9961 33.1149Z" fill="#039355"/>
<path d="M20.3613 33.1149C20.7658 33.1149 21.0938 32.787 21.0938 32.3825V30.8164C21.0938 30.4119 20.7658 30.084 20.3613 30.084C19.9568 30.084 19.6289 30.4119 19.6289 30.8164V32.3825C19.6289 32.787 19.9568 33.1149 20.3613 33.1149Z" fill="#039355"/>
<path d="M16.9961 38.5876C17.4006 38.5876 17.7285 38.2597 17.7285 37.8552V36.2891C17.7285 35.8846 17.4006 35.5566 16.9961 35.5566C16.5916 35.5566 16.2637 35.8846 16.2637 36.2891V37.8552C16.2637 38.2597 16.5915 38.5876 16.9961 38.5876Z" fill="#039355"/>
<path d="M20.3613 38.5876C20.7658 38.5876 21.0938 38.2597 21.0938 37.8552V36.2891C21.0938 35.8846 20.7658 35.5566 20.3613 35.5566C19.9568 35.5566 19.6289 35.8846 19.6289 36.2891V37.8552C19.6289 38.2597 19.9568 38.5876 20.3613 38.5876Z" fill="#039355"/>
<path d="M16.9961 44.0603C17.4006 44.0603 17.7285 43.7323 17.7285 43.3278V41.7617C17.7285 41.3572 17.4006 41.0293 16.9961 41.0293C16.5916 41.0293 16.2637 41.3572 16.2637 41.7617V43.3278C16.2637 43.7323 16.5915 44.0603 16.9961 44.0603Z" fill="#039355"/>
<path d="M20.3613 44.0603C20.7658 44.0603 21.0938 43.7323 21.0938 43.3278V41.7617C21.0938 41.3572 20.7658 41.0293 20.3613 41.0293C19.9568 41.0293 19.6289 41.3572 19.6289 41.7617V43.3278C19.6289 43.7323 19.9568 44.0603 20.3613 44.0603Z" fill="#039355"/>
</svg>
